<?xml version="1.0" encoding="utf-8"?>
<svg width="165px" height="107px" viewbox="0 0 165 107" version="1.1" xmlns:xlink="http://www.w3.org/1999/xlink" xmlns="http://www.w3.org/2000/svg">
  <g id="Group_451" transform="translate(2 2)" opacity="0.319">
    <g id="Ellipse_59" opacity="0.535">
      <path d="M0 5.00282C0 2.23984 2.23984 0 5.00282 0C7.7658 0 10.0056 2.23984 10.0056 5.00282C10.0056 7.76579 7.7658 10.0056 5.00282 10.0056C2.23984 10.0056 0 7.76579 0 5.00282Z" id="Circle" fill="none" fill-rule="evenodd" stroke="none" />
      <path d="M0 3.57344C0 1.59988 1.59988 0 3.57344 0C5.547 0 7.14688 1.59988 7.14688 3.57344C7.14688 5.547 5.547 7.14688 3.57344 7.14688C1.59988 7.14688 0 5.547 0 3.57344Z" transform="translate(1.429376 1.4293758)" id="Circle" fill="none" fill-rule="evenodd" stroke="#6237FC" stroke-width="4" />
    </g>
    <g id="Ellipse_59-2" transform="translate(30.016907 0)" opacity="0.535">
      <path d="M0 5.00282C0 2.23984 2.07985 0 4.64547 0C7.21109 0 9.29094 2.23984 9.29094 5.00282C9.29094 7.76579 7.21109 10.0056 4.64547 10.0056C2.07985 10.0056 0 7.76579 0 5.00282Z" id="Ellipse" fill="none" fill-rule="evenodd" stroke="none" />
      <path d="M0 3.57344C0 1.59988 1.4399 0 3.2161 0C4.9923 0 6.43219 1.59988 6.43219 3.57344C6.43219 5.547 4.9923 7.14688 3.2161 7.14688C1.4399 7.14688 0 5.547 0 3.57344Z" transform="translate(1.4293759 1.4293758)" id="Ellipse" fill="none" fill-rule="evenodd" stroke="#6237FC" stroke-width="4" />
    </g>
    <g id="Ellipse_59-3" transform="translate(60.748474 0)" opacity="0.535">
      <path d="M0 5.00282C0 2.23984 2.23984 0 5.00282 0C7.76579 0 10.0056 2.23984 10.0056 5.00282C10.0056 7.76579 7.76579 10.0056 5.00282 10.0056C2.23984 10.0056 0 7.76579 0 5.00282Z" id="Circle" fill="none" fill-rule="evenodd" stroke="none" />
      <path d="M0 3.57344C0 1.59988 1.59988 0 3.57344 0C5.547 0 7.14688 1.59988 7.14688 3.57344C7.14688 5.547 5.547 7.14688 3.57344 7.14688C1.59988 7.14688 0 5.547 0 3.57344Z" transform="translate(1.4293758 1.4293758)" id="Circle" fill="none" fill-rule="evenodd" stroke="#6237FC" stroke-width="4" />
    </g>
    <g id="Ellipse_59-4" transform="translate(90.76538 0)" opacity="0.535">
      <path d="M0 5.00282C0 2.23984 2.07985 0 4.64547 0C7.2111 0 9.29095 2.23984 9.29095 5.00282C9.29095 7.76579 7.2111 10.0056 4.64547 10.0056C2.07985 10.0056 0 7.76579 0 5.00282Z" id="Ellipse" fill="none" fill-rule="evenodd" stroke="none" />
      <path d="M0 3.57344C0 1.59988 1.4399 0 3.2161 0C4.9923 0 6.43219 1.59988 6.43219 3.57344C6.43219 5.547 4.9923 7.14688 3.2161 7.14688C1.4399 7.14688 0 5.547 0 3.57344Z" transform="translate(1.4293765 1.4293758)" id="Ellipse" fill="none" fill-rule="evenodd" stroke="#6237FC" stroke-width="4" />
    </g>
    <g id="Ellipse_59-5" transform="translate(120.78226 0)" opacity="0.535">
      <path d="M0 5.00282C0 2.23984 2.39983 0 5.36016 0C8.3205 0 10.7203 2.23984 10.7203 5.00282C10.7203 7.76579 8.3205 10.0056 5.36016 10.0056C2.39983 10.0056 0 7.76579 0 5.00282Z" id="Ellipse" fill="none" fill-rule="evenodd" stroke="none" />
      <path d="M0 3.57344C0 1.59988 1.75987 0 3.93078 0C6.1017 0 7.86157 1.59988 7.86157 3.57344C7.86157 5.547 6.1017 7.14688 3.93078 7.14688C1.75987 7.14688 0 5.547 0 3.57344Z" transform="translate(1.4293762 1.4293758)" id="Ellipse" fill="none" fill-rule="evenodd" stroke="#6237FC" stroke-width="4" />
    </g>
    <g id="Ellipse_59-6" transform="translate(150.79916 0)" opacity="0.535">
      <path d="M0 5.00282C0 2.23984 2.23984 0 5.00282 0C7.76579 0 10.0056 2.23984 10.0056 5.00282C10.0056 7.76579 7.76579 10.0056 5.00282 10.0056C2.23984 10.0056 0 7.76579 0 5.00282Z" id="Circle" fill="none" fill-rule="evenodd" stroke="none" />
      <path d="M0 3.57344C0 1.59988 1.59988 0 3.57344 0C5.547 0 7.14688 1.59988 7.14688 3.57344C7.14688 5.547 5.547 7.14688 3.57344 7.14688C1.59988 7.14688 0 5.547 0 3.57344Z" transform="translate(1.4293758 1.4293758)" id="Circle" fill="none" fill-rule="evenodd" stroke="#6237FC" stroke-width="4" />
    </g>
    <g id="Ellipse_59-7" transform="translate(0 22.870117)" opacity="0.535">
      <path d="M0 5.00281C0 2.23984 2.23984 0 5.00282 0C7.7658 0 10.0056 2.23984 10.0056 5.00281C10.0056 7.76579 7.7658 10.0056 5.00282 10.0056C2.23984 10.0056 0 7.76579 0 5.00281Z" id="Circle" fill="none" fill-rule="evenodd" stroke="none" />
      <path d="M0 3.57344C0 1.59988 1.59988 0 3.57344 0C5.547 0 7.14688 1.59988 7.14688 3.57344C7.14688 5.54699 5.547 7.14688 3.57344 7.14688C1.59988 7.14688 0 5.54699 0 3.57344Z" transform="translate(1.429376 1.4293755)" id="Circle" fill="none" fill-rule="evenodd" stroke="#6237FC" stroke-width="4" />
    </g>
    <g id="Ellipse_59-8" transform="translate(30.016907 22.870117)" opacity="0.535">
      <path d="M0 5.00281C0 2.23984 2.07985 0 4.64547 0C7.21109 0 9.29094 2.23984 9.29094 5.00281C9.29094 7.76579 7.21109 10.0056 4.64547 10.0056C2.07985 10.0056 0 7.76579 0 5.00281Z" id="Ellipse" fill="none" fill-rule="evenodd" stroke="none" />
      <path d="M0 3.57344C0 1.59988 1.4399 0 3.2161 0C4.9923 0 6.43219 1.59988 6.43219 3.57344C6.43219 5.54699 4.9923 7.14688 3.2161 7.14688C1.4399 7.14688 0 5.54699 0 3.57344Z" transform="translate(1.4293759 1.4293755)" id="Ellipse" fill="none" fill-rule="evenodd" stroke="#6237FC" stroke-width="4" />
    </g>
    <g id="Ellipse_59-9" transform="translate(60.748474 22.870117)">
      <path d="M0 5.00281C0 2.23984 2.23984 0 5.00282 0C7.76579 0 10.0056 2.23984 10.0056 5.00281C10.0056 7.76579 7.76579 10.0056 5.00282 10.0056C2.23984 10.0056 0 7.76579 0 5.00281Z" id="Circle" fill="none" fill-rule="evenodd" stroke="none" />
      <path d="M0 3.57344C0 1.59988 1.59988 0 3.57344 0C5.547 0 7.14688 1.59988 7.14688 3.57344C7.14688 5.54699 5.547 7.14688 3.57344 7.14688C1.59988 7.14688 0 5.54699 0 3.57344Z" transform="translate(1.4293758 1.4293755)" id="Circle" fill="none" fill-rule="evenodd" stroke="#6237FC" stroke-width="4" />
    </g>
    <g id="Ellipse_59-10" transform="translate(90.76538 22.870117)" opacity="0.535">
      <path d="M0 5.00281C0 2.23984 2.07985 0 4.64547 0C7.2111 0 9.29095 2.23984 9.29095 5.00281C9.29095 7.76579 7.2111 10.0056 4.64547 10.0056C2.07985 10.0056 0 7.76579 0 5.00281Z" id="Ellipse" fill="none" fill-rule="evenodd" stroke="none" />
      <path d="M0 3.57344C0 1.59988 1.4399 0 3.2161 0C4.9923 0 6.43219 1.59988 6.43219 3.57344C6.43219 5.54699 4.9923 7.14688 3.2161 7.14688C1.4399 7.14688 0 5.54699 0 3.57344Z" transform="translate(1.4293765 1.4293755)" id="Ellipse" fill="none" fill-rule="evenodd" stroke="#6237FC" stroke-width="4" />
    </g>
    <g id="Ellipse_59-11" transform="translate(120.78226 22.870117)" opacity="0.535">
      <path d="M0 5.00281C0 2.23984 2.39983 0 5.36016 0C8.3205 0 10.7203 2.23984 10.7203 5.00281C10.7203 7.76579 8.3205 10.0056 5.36016 10.0056C2.39983 10.0056 0 7.76579 0 5.00281Z" id="Ellipse" fill="none" fill-rule="evenodd" stroke="none" />
      <path d="M0 3.57344C0 1.59988 1.75987 0 3.93078 0C6.1017 0 7.86157 1.59988 7.86157 3.57344C7.86157 5.54699 6.1017 7.14688 3.93078 7.14688C1.75987 7.14688 0 5.54699 0 3.57344Z" transform="translate(1.4293762 1.4293755)" id="Ellipse" fill="none" fill-rule="evenodd" stroke="#6237FC" stroke-width="4" />
    </g>
    <g id="Ellipse_59-12" transform="translate(150.79916 22.870117)" opacity="0.535">
      <path d="M0 5.00281C0 2.23984 2.23984 0 5.00282 0C7.76579 0 10.0056 2.23984 10.0056 5.00281C10.0056 7.76579 7.76579 10.0056 5.00282 10.0056C2.23984 10.0056 0 7.76579 0 5.00281Z" id="Circle" fill="none" fill-rule="evenodd" stroke="none" />
      <path d="M0 3.57344C0 1.59988 1.59988 0 3.57344 0C5.547 0 7.14688 1.59988 7.14688 3.57344C7.14688 5.54699 5.547 7.14688 3.57344 7.14688C1.59988 7.14688 0 5.54699 0 3.57344Z" transform="translate(1.4293758 1.4293755)" id="Circle" fill="none" fill-rule="evenodd" stroke="#6237FC" stroke-width="4" />
    </g>
    <g id="Ellipse_59-13" transform="translate(0 46.45459)" opacity="0.535">
      <path d="M0 4.64547C0 2.07985 2.23984 0 5.00282 0C7.7658 0 10.0056 2.07985 10.0056 4.64547C10.0056 7.21109 7.7658 9.29094 5.00282 9.29094C2.23984 9.29094 0 7.21109 0 4.64547Z" id="Ellipse" fill="none" fill-rule="evenodd" stroke="none" />
      <path d="M0 3.2161C0 1.4399 1.59988 0 3.57344 0C5.547 0 7.14688 1.4399 7.14688 3.2161C7.14688 4.9923 5.547 6.43219 3.57344 6.43219C1.59988 6.43219 0 4.9923 0 3.2161Z" transform="translate(1.429376 1.4293759)" id="Ellipse" fill="none" fill-rule="evenodd" stroke="#6237FC" stroke-width="4" />
    </g>
    <g id="Ellipse_59-14" transform="translate(30.016907 46.45459)" opacity="0.535">
      <path d="M0 4.64547C0 2.07985 2.07985 0 4.64547 0C7.21109 0 9.29094 2.07985 9.29094 4.64547C9.29094 7.21109 7.21109 9.29094 4.64547 9.29094C2.07985 9.29094 0 7.21109 0 4.64547Z" id="Circle" fill="none" fill-rule="evenodd" stroke="none" />
      <path d="M0 3.2161C0 1.4399 1.4399 0 3.2161 0C4.9923 0 6.43219 1.4399 6.43219 3.2161C6.43219 4.9923 4.9923 6.43219 3.2161 6.43219C1.4399 6.43219 0 4.9923 0 3.2161Z" transform="translate(1.4293759 1.4293759)" id="Circle" fill="none" fill-rule="evenodd" stroke="#6237FC" stroke-width="4" />
    </g>
    <g id="Ellipse_59-15" transform="translate(60.748474 46.45459)" opacity="0.535">
      <path d="M0 4.64547C0 2.07985 2.23984 0 5.00282 0C7.76579 0 10.0056 2.07985 10.0056 4.64547C10.0056 7.21109 7.76579 9.29094 5.00282 9.29094C2.23984 9.29094 0 7.21109 0 4.64547Z" id="Ellipse" fill="none" fill-rule="evenodd" stroke="none" />
      <path d="M0 3.2161C0 1.4399 1.59988 0 3.57344 0C5.547 0 7.14688 1.4399 7.14688 3.2161C7.14688 4.9923 5.547 6.43219 3.57344 6.43219C1.59988 6.43219 0 4.9923 0 3.2161Z" transform="translate(1.4293758 1.4293759)" id="Ellipse" fill="none" fill-rule="evenodd" stroke="#6237FC" stroke-width="4" />
    </g>
    <g id="Ellipse_59-16" transform="translate(90.76538 46.45459)" opacity="0.535">
      <path d="M0 4.64547C0 2.07985 2.07985 0 4.64547 0C7.2111 0 9.29095 2.07985 9.29095 4.64547C9.29095 7.21109 7.2111 9.29094 4.64547 9.29094C2.07985 9.29094 0 7.21109 0 4.64547Z" id="Circle" fill="none" fill-rule="evenodd" stroke="none" />
      <path d="M0 3.2161C0 1.4399 1.4399 0 3.2161 0C4.9923 0 6.43219 1.4399 6.43219 3.2161C6.43219 4.9923 4.9923 6.43219 3.2161 6.43219C1.4399 6.43219 0 4.9923 0 3.2161Z" transform="translate(1.4293765 1.4293759)" id="Circle" fill="none" fill-rule="evenodd" stroke="#6237FC" stroke-width="4" />
    </g>
    <g id="Ellipse_59-17" transform="translate(120.78226 46.45459)" opacity="0.535">
      <path d="M0 4.64547C0 2.07985 2.39983 0 5.36016 0C8.3205 0 10.7203 2.07985 10.7203 4.64547C10.7203 7.21109 8.3205 9.29094 5.36016 9.29094C2.39983 9.29094 0 7.21109 0 4.64547Z" id="Ellipse" fill="none" fill-rule="evenodd" stroke="none" />
      <path d="M0 3.2161C0 1.4399 1.75987 0 3.93078 0C6.1017 0 7.86157 1.4399 7.86157 3.2161C7.86157 4.9923 6.1017 6.43219 3.93078 6.43219C1.75987 6.43219 0 4.9923 0 3.2161Z" transform="translate(1.4293762 1.4293759)" id="Ellipse" fill="none" fill-rule="evenodd" stroke="#6237FC" stroke-width="4" />
    </g>
    <g id="Ellipse_59-18" transform="translate(150.79916 46.45459)" opacity="0.535">
      <path d="M0 4.64547C0 2.07985 2.23984 0 5.00282 0C7.76579 0 10.0056 2.07985 10.0056 4.64547C10.0056 7.21109 7.76579 9.29094 5.00282 9.29094C2.23984 9.29094 0 7.21109 0 4.64547Z" id="Ellipse" fill="none" fill-rule="evenodd" stroke="none" />
      <path d="M0 3.2161C0 1.4399 1.59988 0 3.57344 0C5.547 0 7.14688 1.4399 7.14688 3.2161C7.14688 4.9923 5.547 6.43219 3.57344 6.43219C1.59988 6.43219 0 4.9923 0 3.2161Z" transform="translate(1.4293758 1.4293759)" id="Ellipse" fill="none" fill-rule="evenodd" stroke="#6237FC" stroke-width="4" />
    </g>
    <g id="Ellipse_59-19" transform="translate(0 69.32471)" opacity="0.535">
      <path d="M0 5.00282C0 2.23984 2.23984 0 5.00282 0C7.7658 0 10.0056 2.23984 10.0056 5.00282C10.0056 7.76579 7.7658 10.0056 5.00282 10.0056C2.23984 10.0056 0 7.76579 0 5.00282Z" id="Circle" fill="none" fill-rule="evenodd" stroke="none" />
      <path d="M0 3.57344C0 1.59988 1.59988 0 3.57344 0C5.547 0 7.14688 1.59988 7.14688 3.57344C7.14688 5.547 5.547 7.14688 3.57344 7.14688C1.59988 7.14688 0 5.547 0 3.57344Z" transform="translate(1.429376 1.4293758)" id="Circle" fill="none" fill-rule="evenodd" stroke="#6237FC" stroke-width="4" />
    </g>
    <g id="Ellipse_59-20" transform="translate(30.016907 69.32471)">
      <path d="M0 5.00282C0 2.23984 2.07985 0 4.64547 0C7.21109 0 9.29094 2.23984 9.29094 5.00282C9.29094 7.76579 7.21109 10.0056 4.64547 10.0056C2.07985 10.0056 0 7.76579 0 5.00282Z" id="Ellipse" fill="none" fill-rule="evenodd" stroke="none" />
      <path d="M0 3.57344C0 1.59988 1.4399 0 3.2161 0C4.9923 0 6.43219 1.59988 6.43219 3.57344C6.43219 5.547 4.9923 7.14688 3.2161 7.14688C1.4399 7.14688 0 5.547 0 3.57344Z" transform="translate(1.4293759 1.4293758)" id="Ellipse" fill="none" fill-rule="evenodd" stroke="#6237FC" stroke-width="4" />
    </g>
    <g id="Ellipse_59-21" transform="translate(60.748474 69.32471)" opacity="0.535">
      <path d="M0 5.00282C0 2.23984 2.23984 0 5.00282 0C7.76579 0 10.0056 2.23984 10.0056 5.00282C10.0056 7.76579 7.76579 10.0056 5.00282 10.0056C2.23984 10.0056 0 7.76579 0 5.00282Z" id="Circle" fill="none" fill-rule="evenodd" stroke="none" />
      <path d="M0 3.57344C0 1.59988 1.59988 0 3.57344 0C5.547 0 7.14688 1.59988 7.14688 3.57344C7.14688 5.547 5.547 7.14688 3.57344 7.14688C1.59988 7.14688 0 5.547 0 3.57344Z" transform="translate(1.4293758 1.4293758)" id="Circle" fill="none" fill-rule="evenodd" stroke="#6237FC" stroke-width="4" />
    </g>
    <g id="Ellipse_59-22" transform="translate(90.76538 69.32471)" opacity="0.535">
      <path d="M0 5.00282C0 2.23984 2.07985 0 4.64547 0C7.2111 0 9.29095 2.23984 9.29095 5.00282C9.29095 7.76579 7.2111 10.0056 4.64547 10.0056C2.07985 10.0056 0 7.76579 0 5.00282Z" id="Ellipse" fill="none" fill-rule="evenodd" stroke="none" />
      <path d="M0 3.57344C0 1.59988 1.4399 0 3.2161 0C4.9923 0 6.43219 1.59988 6.43219 3.57344C6.43219 5.547 4.9923 7.14688 3.2161 7.14688C1.4399 7.14688 0 5.547 0 3.57344Z" transform="translate(1.4293765 1.4293758)" id="Ellipse" fill="none" fill-rule="evenodd" stroke="#6237FC" stroke-width="4" />
    </g>
    <g id="Ellipse_59-23" transform="translate(120.78226 69.32471)">
      <path d="M0 5.00282C0 2.23984 2.39983 0 5.36016 0C8.3205 0 10.7203 2.23984 10.7203 5.00282C10.7203 7.76579 8.3205 10.0056 5.36016 10.0056C2.39983 10.0056 0 7.76579 0 5.00282Z" id="Ellipse" fill="none" fill-rule="evenodd" stroke="none" />
      <path d="M0 3.57344C0 1.59988 1.75987 0 3.93078 0C6.1017 0 7.86157 1.59988 7.86157 3.57344C7.86157 5.547 6.1017 7.14688 3.93078 7.14688C1.75987 7.14688 0 5.547 0 3.57344Z" transform="translate(1.4293762 1.4293758)" id="Ellipse" fill="none" fill-rule="evenodd" stroke="#6237FC" stroke-width="4" />
    </g>
    <g id="Ellipse_59-24" transform="translate(150.79916 69.32471)" opacity="0.535">
      <path d="M0 5.00282C0 2.23984 2.23984 0 5.00282 0C7.76579 0 10.0056 2.23984 10.0056 5.00282C10.0056 7.76579 7.76579 10.0056 5.00282 10.0056C2.23984 10.0056 0 7.76579 0 5.00282Z" id="Circle" fill="none" fill-rule="evenodd" stroke="none" />
      <path d="M0 3.57344C0 1.59988 1.59988 0 3.57344 0C5.547 0 7.14688 1.59988 7.14688 3.57344C7.14688 5.547 5.547 7.14688 3.57344 7.14688C1.59988 7.14688 0 5.547 0 3.57344Z" transform="translate(1.4293758 1.4293758)" id="Circle" fill="none" fill-rule="evenodd" stroke="#6237FC" stroke-width="4" />
    </g>
    <g id="Ellipse_59-25" transform="translate(0 91.47998)" opacity="0.535">
      <path d="M0 5.36016C0 2.39982 2.23984 0 5.00282 0C7.7658 0 10.0056 2.39982 10.0056 5.36016C10.0056 8.32049 7.7658 10.7203 5.00282 10.7203C2.23984 10.7203 0 8.32049 0 5.36016Z" id="Ellipse" fill="none" fill-rule="evenodd" stroke="none" />
      <path d="M0 3.93078C0 1.75987 1.59988 0 3.57344 0C5.547 0 7.14688 1.75987 7.14688 3.93078C7.14688 6.10169 5.547 7.86156 3.57344 7.86156C1.59988 7.86156 0 6.10169 0 3.93078Z" transform="translate(1.429376 1.4293752)" id="Ellipse" fill="none" fill-rule="evenodd" stroke="#6237FC" stroke-width="4" />
    </g>
    <g id="Ellipse_59-26" transform="translate(30.016907 91.47998)" opacity="0.535">
      <path d="M0 5.36016C0 2.39982 2.07985 0 4.64547 0C7.21109 0 9.29094 2.39982 9.29094 5.36016C9.29094 8.32049 7.21109 10.7203 4.64547 10.7203C2.07985 10.7203 0 8.32049 0 5.36016Z" id="Ellipse" fill="none" fill-rule="evenodd" stroke="none" />
      <path d="M0 3.93078C0 1.75987 1.4399 0 3.2161 0C4.9923 0 6.43219 1.75987 6.43219 3.93078C6.43219 6.10169 4.9923 7.86156 3.2161 7.86156C1.4399 7.86156 0 6.10169 0 3.93078Z" transform="translate(1.4293759 1.4293752)" id="Ellipse" fill="none" fill-rule="evenodd" stroke="#6237FC" stroke-width="4" />
    </g>
    <g id="Ellipse_59-27" transform="translate(60.748474 91.47998)" opacity="0.535">
      <path d="M0 5.36016C0 2.39982 2.23984 0 5.00282 0C7.76579 0 10.0056 2.39982 10.0056 5.36016C10.0056 8.32049 7.76579 10.7203 5.00282 10.7203C2.23984 10.7203 0 8.32049 0 5.36016Z" id="Ellipse" fill="none" fill-rule="evenodd" stroke="none" />
      <path d="M0 3.93078C0 1.75987 1.59988 0 3.57344 0C5.547 0 7.14688 1.75987 7.14688 3.93078C7.14688 6.10169 5.547 7.86156 3.57344 7.86156C1.59988 7.86156 0 6.10169 0 3.93078Z" transform="translate(1.4293758 1.4293752)" id="Ellipse" fill="none" fill-rule="evenodd" stroke="#6237FC" stroke-width="4" />
    </g>
    <g id="Ellipse_59-28" transform="translate(90.76538 91.47998)" opacity="0.535">
      <path d="M0 5.36016C0 2.39982 2.07985 0 4.64547 0C7.2111 0 9.29095 2.39982 9.29095 5.36016C9.29095 8.32049 7.2111 10.7203 4.64547 10.7203C2.07985 10.7203 0 8.32049 0 5.36016Z" id="Ellipse" fill="none" fill-rule="evenodd" stroke="none" />
      <path d="M0 3.93078C0 1.75987 1.4399 0 3.2161 0C4.9923 0 6.43219 1.75987 6.43219 3.93078C6.43219 6.10169 4.9923 7.86156 3.2161 7.86156C1.4399 7.86156 0 6.10169 0 3.93078Z" transform="translate(1.4293765 1.4293752)" id="Ellipse" fill="none" fill-rule="evenodd" stroke="#6237FC" stroke-width="4" />
    </g>
    <g id="Ellipse_59-29" transform="translate(120.78226 91.47998)" opacity="0.535">
      <path d="M0 5.36016C0 2.39982 2.39983 0 5.36016 0C8.3205 0 10.7203 2.39982 10.7203 5.36016C10.7203 8.32049 8.3205 10.7203 5.36016 10.7203C2.39983 10.7203 0 8.32049 0 5.36016Z" id="Circle" fill="none" fill-rule="evenodd" stroke="none" />
      <path d="M0 3.93078C0 1.75987 1.75987 0 3.93078 0C6.1017 0 7.86157 1.75987 7.86157 3.93078C7.86157 6.10169 6.1017 7.86156 3.93078 7.86156C1.75987 7.86156 0 6.10169 0 3.93078Z" transform="translate(1.4293762 1.4293752)" id="Circle" fill="none" fill-rule="evenodd" stroke="#6237FC" stroke-width="4" />
    </g>
    <g id="Ellipse_59-30" transform="translate(150.79916 91.47998)" opacity="0.535">
      <path d="M0 5.36016C0 2.39982 2.23984 0 5.00282 0C7.76579 0 10.0056 2.39982 10.0056 5.36016C10.0056 8.32049 7.76579 10.7203 5.00282 10.7203C2.23984 10.7203 0 8.32049 0 5.36016Z" id="Ellipse" fill="none" fill-rule="evenodd" stroke="none" />
      <path d="M0 3.93078C0 1.75987 1.59988 0 3.57344 0C5.547 0 7.14688 1.75987 7.14688 3.93078C7.14688 6.10169 5.547 7.86156 3.57344 7.86156C1.59988 7.86156 0 6.10169 0 3.93078Z" transform="translate(1.4293758 1.4293752)" id="Ellipse" fill="none" fill-rule="evenodd" stroke="#6237FC" stroke-width="4" />
    </g>
  </g>
</svg>