<?xml version="1.0" encoding="utf-8"?>
<svg width="166px" height="166px" viewbox="0 0 166 166" version="1.1" xmlns:xlink="http://www.w3.org/1999/xlink" xmlns="http://www.w3.org/2000/svg">
  <defs>
    <path d="M31.999 0L134.001 0Q134.787 0 135.571 0.0385442Q136.356 0.0770884 137.137 0.154084Q137.919 0.231079 138.696 0.346341Q139.473 0.461602 140.244 0.614852Q141.014 0.768101 141.776 0.95897Q142.538 1.14984 143.29 1.37787Q144.042 1.60589 144.781 1.87053Q145.521 2.13517 146.246 2.43578Q146.972 2.73639 147.682 3.07225Q148.392 3.4081 149.085 3.7784Q149.778 4.1487 150.452 4.55254Q151.126 4.95639 151.779 5.3928Q152.432 5.82922 153.063 6.29716Q153.694 6.7651 154.301 7.26344Q154.908 7.76177 155.49 8.2893Q156.072 8.81684 156.628 9.37229Q157.183 9.92774 157.711 10.5098Q158.238 11.0918 158.737 11.699Q159.235 12.3063 159.703 12.9372Q160.171 13.5682 160.607 14.2213Q161.044 14.8745 161.447 15.5482Q161.851 16.222 162.222 16.9148Q162.592 17.6076 162.928 18.3177Q163.264 19.0278 163.564 19.7535Q163.865 20.4792 164.129 21.2189Q164.394 21.9585 164.622 22.7102Q164.85 23.4619 165.041 24.2239Q165.232 24.9859 165.385 25.7563Q165.538 26.5267 165.654 27.3038Q165.769 28.0808 165.846 28.8626Q165.923 29.6443 165.961 30.4289Q166 31.2135 166 31.999L166 134.001Q166 134.787 165.961 135.571Q165.923 136.356 165.846 137.137Q165.769 137.919 165.654 138.696Q165.538 139.473 165.385 140.244Q165.232 141.014 165.041 141.776Q164.85 142.538 164.622 143.29Q164.394 144.042 164.129 144.781Q163.865 145.521 163.564 146.246Q163.264 146.972 162.928 147.682Q162.592 148.392 162.222 149.085Q161.851 149.778 161.447 150.452Q161.044 151.126 160.607 151.779Q160.171 152.432 159.703 153.063Q159.235 153.694 158.737 154.301Q158.238 154.908 157.711 155.49Q157.183 156.072 156.628 156.628Q156.072 157.183 155.49 157.711Q154.908 158.238 154.301 158.737Q153.694 159.235 153.063 159.703Q152.432 160.171 151.779 160.607Q151.126 161.044 150.452 161.447Q149.778 161.851 149.085 162.222Q148.392 162.592 147.682 162.928Q146.972 163.264 146.246 163.564Q145.521 163.865 144.781 164.129Q144.042 164.394 143.29 164.622Q142.538 164.85 141.776 165.041Q141.014 165.232 140.244 165.385Q139.473 165.538 138.696 165.654Q137.919 165.769 137.137 165.846Q136.356 165.923 135.571 165.961Q134.787 166 134.001 166L31.999 166Q31.2135 166 30.4289 165.961Q29.6443 165.923 28.8625 165.846Q28.0808 165.769 27.3038 165.654Q26.5267 165.538 25.7563 165.385Q24.9859 165.232 24.2239 165.041Q23.4619 164.85 22.7102 164.622Q21.9585 164.394 21.2189 164.129Q20.4792 163.865 19.7535 163.564Q19.0278 163.264 18.3177 162.928Q17.6076 162.592 16.9148 162.222Q16.222 161.851 15.5482 161.447Q14.8745 161.044 14.2213 160.607Q13.5682 160.171 12.9372 159.703Q12.3063 159.235 11.699 158.737Q11.0918 158.238 10.5098 157.711Q9.92774 157.183 9.37229 156.628Q8.81684 156.072 8.2893 155.49Q7.76177 154.908 7.26344 154.301Q6.7651 153.694 6.29716 153.063Q5.82922 152.432 5.3928 151.779Q4.95639 151.126 4.55254 150.452Q4.1487 149.778 3.7784 149.085Q3.4081 148.392 3.07225 147.682Q2.73639 146.972 2.43578 146.246Q2.13517 145.521 1.87053 144.781Q1.60589 144.042 1.37787 143.29Q1.14984 142.538 0.95897 141.776Q0.768101 141.014 0.614852 140.244Q0.461602 139.473 0.346341 138.696Q0.231079 137.919 0.154084 137.137Q0.0770884 136.356 0.0385442 135.571Q0 134.787 0 134.001L0 31.999Q0 31.2135 0.0385442 30.4289Q0.0770884 29.6443 0.154084 28.8625Q0.231079 28.0808 0.346341 27.3038Q0.461602 26.5267 0.614852 25.7563Q0.768101 24.9859 0.95897 24.2239Q1.14984 23.4619 1.37787 22.7102Q1.60589 21.9585 1.87053 21.2189Q2.13517 20.4792 2.43578 19.7535Q2.73639 19.0278 3.07225 18.3177Q3.4081 17.6076 3.7784 16.9148Q4.1487 16.222 4.55254 15.5482Q4.95639 14.8745 5.3928 14.2213Q5.82922 13.5682 6.29716 12.9372Q6.7651 12.3063 7.26344 11.699Q7.76177 11.0918 8.2893 10.5098Q8.81684 9.92774 9.37229 9.37229Q9.92774 8.81684 10.5098 8.2893Q11.0918 7.76177 11.699 7.26344Q12.3063 6.7651 12.9372 6.29716Q13.5682 5.82922 14.2213 5.3928Q14.8745 4.95639 15.5482 4.55254Q16.222 4.1487 16.9148 3.7784Q17.6076 3.4081 18.3177 3.07225Q19.0278 2.73639 19.7535 2.43578Q20.4792 2.13517 21.2189 1.87053Q21.9585 1.60589 22.7102 1.37787Q23.4619 1.14984 24.2239 0.95897Q24.9859 0.768101 25.7563 0.614852Q26.5267 0.461602 27.3038 0.346341Q28.0808 0.231079 28.8626 0.154084Q29.6443 0.0770884 30.4289 0.0385442Q31.2135 0 31.999 0L31.999 0Z" id="path_1" />
    <clipPath id="mask_1">
      <use xlink:href="#path_1" />
    </clipPath>
  </defs>
  <g id="ico">
    <path d="M31.999 0L134.001 0Q134.787 0 135.571 0.0385442Q136.356 0.0770884 137.137 0.154084Q137.919 0.231079 138.696 0.346341Q139.473 0.461602 140.244 0.614852Q141.014 0.768101 141.776 0.95897Q142.538 1.14984 143.29 1.37787Q144.042 1.60589 144.781 1.87053Q145.521 2.13517 146.246 2.43578Q146.972 2.73639 147.682 3.07225Q148.392 3.4081 149.085 3.7784Q149.778 4.1487 150.452 4.55254Q151.126 4.95639 151.779 5.3928Q152.432 5.82922 153.063 6.29716Q153.694 6.7651 154.301 7.26344Q154.908 7.76177 155.49 8.2893Q156.072 8.81684 156.628 9.37229Q157.183 9.92774 157.711 10.5098Q158.238 11.0918 158.737 11.699Q159.235 12.3063 159.703 12.9372Q160.171 13.5682 160.607 14.2213Q161.044 14.8745 161.447 15.5482Q161.851 16.222 162.222 16.9148Q162.592 17.6076 162.928 18.3177Q163.264 19.0278 163.564 19.7535Q163.865 20.4792 164.129 21.2189Q164.394 21.9585 164.622 22.7102Q164.85 23.4619 165.041 24.2239Q165.232 24.9859 165.385 25.7563Q165.538 26.5267 165.654 27.3038Q165.769 28.0808 165.846 28.8626Q165.923 29.6443 165.961 30.4289Q166 31.2135 166 31.999L166 134.001Q166 134.787 165.961 135.571Q165.923 136.356 165.846 137.137Q165.769 137.919 165.654 138.696Q165.538 139.473 165.385 140.244Q165.232 141.014 165.041 141.776Q164.85 142.538 164.622 143.29Q164.394 144.042 164.129 144.781Q163.865 145.521 163.564 146.246Q163.264 146.972 162.928 147.682Q162.592 148.392 162.222 149.085Q161.851 149.778 161.447 150.452Q161.044 151.126 160.607 151.779Q160.171 152.432 159.703 153.063Q159.235 153.694 158.737 154.301Q158.238 154.908 157.711 155.49Q157.183 156.072 156.628 156.628Q156.072 157.183 155.49 157.711Q154.908 158.238 154.301 158.737Q153.694 159.235 153.063 159.703Q152.432 160.171 151.779 160.607Q151.126 161.044 150.452 161.447Q149.778 161.851 149.085 162.222Q148.392 162.592 147.682 162.928Q146.972 163.264 146.246 163.564Q145.521 163.865 144.781 164.129Q144.042 164.394 143.29 164.622Q142.538 164.85 141.776 165.041Q141.014 165.232 140.244 165.385Q139.473 165.538 138.696 165.654Q137.919 165.769 137.137 165.846Q136.356 165.923 135.571 165.961Q134.787 166 134.001 166L31.999 166Q31.2135 166 30.4289 165.961Q29.6443 165.923 28.8625 165.846Q28.0808 165.769 27.3038 165.654Q26.5267 165.538 25.7563 165.385Q24.9859 165.232 24.2239 165.041Q23.4619 164.85 22.7102 164.622Q21.9585 164.394 21.2189 164.129Q20.4792 163.865 19.7535 163.564Q19.0278 163.264 18.3177 162.928Q17.6076 162.592 16.9148 162.222Q16.222 161.851 15.5482 161.447Q14.8745 161.044 14.2213 160.607Q13.5682 160.171 12.9372 159.703Q12.3063 159.235 11.699 158.737Q11.0918 158.238 10.5098 157.711Q9.92774 157.183 9.37229 156.628Q8.81684 156.072 8.2893 155.49Q7.76177 154.908 7.26344 154.301Q6.7651 153.694 6.29716 153.063Q5.82922 152.432 5.3928 151.779Q4.95639 151.126 4.55254 150.452Q4.1487 149.778 3.7784 149.085Q3.4081 148.392 3.07225 147.682Q2.73639 146.972 2.43578 146.246Q2.13517 145.521 1.87053 144.781Q1.60589 144.042 1.37787 143.29Q1.14984 142.538 0.95897 141.776Q0.768101 141.014 0.614852 140.244Q0.461602 139.473 0.346341 138.696Q0.231079 137.919 0.154084 137.137Q0.0770884 136.356 0.0385442 135.571Q0 134.787 0 134.001L0 31.999Q0 31.2135 0.0385442 30.4289Q0.0770884 29.6443 0.154084 28.8625Q0.231079 28.0808 0.346341 27.3038Q0.461602 26.5267 0.614852 25.7563Q0.768101 24.9859 0.95897 24.2239Q1.14984 23.4619 1.37787 22.7102Q1.60589 21.9585 1.87053 21.2189Q2.13517 20.4792 2.43578 19.7535Q2.73639 19.0278 3.07225 18.3177Q3.4081 17.6076 3.7784 16.9148Q4.1487 16.222 4.55254 15.5482Q4.95639 14.8745 5.3928 14.2213Q5.82922 13.5682 6.29716 12.9372Q6.7651 12.3063 7.26344 11.699Q7.76177 11.0918 8.2893 10.5098Q8.81684 9.92774 9.37229 9.37229Q9.92774 8.81684 10.5098 8.2893Q11.0918 7.76177 11.699 7.26344Q12.3063 6.7651 12.9372 6.29716Q13.5682 5.82922 14.2213 5.3928Q14.8745 4.95639 15.5482 4.55254Q16.222 4.1487 16.9148 3.7784Q17.6076 3.4081 18.3177 3.07225Q19.0278 2.73639 19.7535 2.43578Q20.4792 2.13517 21.2189 1.87053Q21.9585 1.60589 22.7102 1.37787Q23.4619 1.14984 24.2239 0.95897Q24.9859 0.768101 25.7563 0.614852Q26.5267 0.461602 27.3038 0.346341Q28.0808 0.231079 28.8626 0.154084Q29.6443 0.0770884 30.4289 0.0385442Q31.2135 0 31.999 0L31.999 0Z" id="Mask" fill="none" fill-rule="evenodd" stroke="none" />
    <g clip-path="url(#mask_1)">
      <g id="Group-5" transform="translate(24 19)">
        <path d="M23.999 0L94.001 0Q94.5901 0 95.1786 0.0289078Q95.767 0.0578157 96.3533 0.115562Q96.9396 0.173308 97.5224 0.259753Q98.1051 0.346198 98.683 0.461134Q99.2608 0.57607 99.8323 0.71922Q100.404 0.86237 100.968 1.03339Q101.531 1.20441 102.086 1.40288Q102.641 1.60136 103.185 1.82681Q103.729 2.05227 104.262 2.30416Q104.794 2.55605 105.314 2.83377Q105.834 3.11149 106.339 3.41437Q106.844 3.71725 107.334 4.04456Q107.824 4.37187 108.297 4.72282Q108.77 5.07377 109.226 5.44752Q109.681 5.82127 110.118 6.21691Q110.554 6.61256 110.971 7.02914Q111.387 7.44573 111.783 7.88226Q112.179 8.31878 112.552 8.77419Q112.926 9.22961 113.277 9.70281Q113.628 10.176 113.955 10.6659Q114.283 11.1557 114.586 11.661Q114.888 12.1664 115.166 12.6859Q115.444 13.2055 115.696 13.7381Q115.948 14.2707 116.173 14.815Q116.399 15.3593 116.597 15.914Q116.796 16.4687 116.967 17.0325Q117.138 17.5962 117.281 18.1677Q117.424 18.7392 117.539 19.317Q117.654 19.8948 117.74 20.4776Q117.827 21.0604 117.884 21.6467Q117.942 22.233 117.971 22.8214Q118 23.4099 118 23.999L118 94.001Q118 94.5901 117.971 95.1786Q117.942 95.767 117.884 96.3533Q117.827 96.9396 117.74 97.5224Q117.654 98.1051 117.539 98.683Q117.424 99.2608 117.281 99.8323Q117.138 100.404 116.967 100.968Q116.796 101.531 116.597 102.086Q116.399 102.641 116.173 103.185Q115.948 103.729 115.696 104.262Q115.444 104.794 115.166 105.314Q114.889 105.834 114.586 106.339Q114.283 106.844 113.955 107.334Q113.628 107.824 113.277 108.297Q112.926 108.77 112.552 109.226Q112.179 109.681 111.783 110.118Q111.387 110.554 110.971 110.971Q110.554 111.387 110.118 111.783Q109.681 112.179 109.226 112.552Q108.77 112.926 108.297 113.277Q107.824 113.628 107.334 113.955Q106.844 114.283 106.339 114.586Q105.834 114.888 105.314 115.166Q104.794 115.444 104.262 115.696Q103.729 115.948 103.185 116.173Q102.641 116.399 102.086 116.597Q101.531 116.796 100.968 116.967Q100.404 117.138 99.8323 117.281Q99.2608 117.424 98.683 117.539Q98.1051 117.654 97.5224 117.74Q96.9396 117.827 96.3533 117.884Q95.767 117.942 95.1786 117.971Q94.5901 118 94.001 118L23.999 118Q23.4099 118 22.8214 117.971Q22.233 117.942 21.6467 117.884Q21.0604 117.827 20.4776 117.74Q19.8948 117.654 19.317 117.539Q18.7392 117.424 18.1677 117.281Q17.5962 117.138 17.0325 116.967Q16.4687 116.796 15.914 116.597Q15.3593 116.399 14.815 116.173Q14.2707 115.948 13.7381 115.696Q13.2055 115.444 12.6859 115.166Q12.1664 114.889 11.661 114.586Q11.1557 114.283 10.6659 113.955Q10.176 113.628 9.70281 113.277Q9.22961 112.926 8.77419 112.552Q8.31878 112.179 7.88226 111.783Q7.44573 111.387 7.02914 110.971Q6.61256 110.554 6.21691 110.118Q5.82127 109.681 5.44752 109.226Q5.07377 108.77 4.72282 108.297Q4.37187 107.824 4.04456 107.334Q3.71725 106.844 3.41437 106.339Q3.11149 105.834 2.83377 105.314Q2.55605 104.794 2.30416 104.262Q2.05227 103.729 1.82681 103.185Q1.60136 102.641 1.40288 102.086Q1.20441 101.531 1.03339 100.968Q0.86237 100.404 0.71922 99.8323Q0.57607 99.2608 0.461134 98.683Q0.346198 98.1051 0.259753 97.5224Q0.173308 96.9396 0.115562 96.3533Q0.0578157 95.767 0.0289078 95.1786Q0 94.5901 0 94.001L0 23.999Q0 23.4099 0.0289078 22.8214Q0.0578157 22.233 0.115562 21.6467Q0.173308 21.0604 0.259753 20.4776Q0.346198 19.8948 0.461134 19.317Q0.57607 18.7392 0.71922 18.1677Q0.86237 17.5962 1.03339 17.0325Q1.20441 16.4687 1.40288 15.914Q1.60136 15.3593 1.82681 14.815Q2.05227 14.2707 2.30416 13.7381Q2.55605 13.2055 2.83377 12.6859Q3.11149 12.1664 3.41437 11.661Q3.71725 11.1557 4.04456 10.6659Q4.37187 10.176 4.72282 9.70281Q5.07377 9.22961 5.44752 8.77419Q5.82127 8.31878 6.21691 7.88226Q6.61256 7.44573 7.02914 7.02914Q7.44573 6.61256 7.88226 6.21691Q8.31878 5.82127 8.77419 5.44752Q9.22961 5.07377 9.70281 4.72282Q10.176 4.37187 10.6659 4.04456Q11.1557 3.71725 11.661 3.41437Q12.1664 3.11149 12.6859 2.83377Q13.2055 2.55605 13.7381 2.30416Q14.2707 2.05227 14.815 1.82681Q15.3593 1.60136 15.914 1.40288Q16.4687 1.20441 17.0325 1.03339Q17.5962 0.86237 18.1677 0.71922Q18.7392 0.57607 19.317 0.461134Q19.8948 0.346198 20.4776 0.259753Q21.0604 0.173308 21.6467 0.115562Q22.233 0.0578157 22.8214 0.0289078Q23.4099 0 23.999 0Z" transform="translate(0 4)" id="Rectangle" fill="#09A854" fill-rule="evenodd" stroke="none" />
        <path d="M0 10.4727C0 4.6888 4.6888 0 10.4727 0C16.2567 0 20.9455 4.6888 20.9455 10.4727C20.9455 16.2567 16.2567 20.9455 10.4727 20.9455C4.6888 20.9455 0 16.2567 0 10.4727ZM53.9345 13.5273C49.8376 13.5273 46.5164 16.8485 46.5164 20.9455C46.5164 25.0424 49.8376 28.3636 53.9345 28.3636C58.0315 28.3636 61.3527 25.0424 61.3527 20.9455C61.3527 16.8485 58.0315 13.5273 53.9345 13.5273ZM12.2172 31.4182L12.2192 31.4182Q12.4334 31.4182 12.6474 31.4287Q12.8613 31.4392 13.0745 31.4602Q13.2877 31.4812 13.4996 31.5126Q13.7115 31.5441 13.9216 31.5858Q14.1317 31.6276 14.3395 31.6797Q14.5473 31.7317 14.7523 31.7939Q14.9573 31.8561 15.159 31.9283Q15.3607 32.0004 15.5586 32.0824Q15.7565 32.1644 15.9501 32.256Q16.1438 32.3476 16.3327 32.4486Q16.5216 32.5495 16.7054 32.6597Q16.8891 32.7698 17.0672 32.8888Q17.2453 33.0078 17.4174 33.1354Q17.5895 33.2631 17.7551 33.3989Q17.9207 33.5348 18.0794 33.6787Q18.2381 33.8226 18.3896 33.974Q18.5411 34.1255 18.6849 34.2842Q18.8288 34.443 18.9647 34.6086Q19.1006 34.7742 19.2282 34.9462Q19.3558 35.1183 19.4748 35.2964Q19.5938 35.4745 19.704 35.6582Q19.8141 35.842 19.9151 36.0309Q20.016 36.2198 20.1076 36.4135Q20.1992 36.6071 20.2812 36.805Q20.3632 37.003 20.4353 37.2047Q20.5075 37.4063 20.5697 37.6113Q20.6319 37.8163 20.6839 38.0241Q20.736 38.2319 20.7778 38.442Q20.8196 38.6521 20.851 38.864Q20.8824 39.0759 20.9034 39.2891Q20.9244 39.5023 20.9349 39.7163Q20.9455 39.9302 20.9455 40.1445L20.9455 67.7849C24.4048 69.6399 28.6064 70.7271 33.1369 70.7271C36.8791 70.7271 40.3969 69.9853 43.4573 68.6818L43.4573 49.4535Q43.4573 49.2393 43.4678 49.0254Q43.4784 48.8114 43.4994 48.5982Q43.5204 48.385 43.5518 48.1731Q43.5832 47.9612 43.625 47.7511Q43.6668 47.541 43.7188 47.3332Q43.7709 47.1254 43.8331 46.9204Q43.8953 46.7155 43.9674 46.5138Q44.0396 46.3121 44.1216 46.1141Q44.2036 45.9162 44.2952 45.7226Q44.3867 45.5289 44.4877 45.34Q44.5887 45.1511 44.6988 44.9673Q44.809 44.7836 44.928 44.6055Q45.047 44.4274 45.1746 44.2553Q45.3022 44.0832 45.4381 43.9177Q45.574 43.7521 45.7179 43.5933Q45.8617 43.4346 46.0132 43.2831Q46.1647 43.1317 46.3234 42.9878Q46.4821 42.8439 46.6477 42.708Q46.8133 42.5721 46.9854 42.4445Q47.1574 42.3169 47.3356 42.1979Q47.5137 42.0789 47.6974 41.9688Q47.8811 41.8586 48.0701 41.7577Q48.259 41.6567 48.4526 41.5651Q48.6463 41.4735 48.8442 41.3915Q49.0421 41.3095 49.2438 41.2374Q49.4455 41.1652 49.6505 41.103Q49.8555 41.0408 50.0633 40.9888Q50.2711 40.9367 50.4812 40.8949Q50.6913 40.8532 50.9032 40.8217Q51.1151 40.7903 51.3283 40.7693Q51.5415 40.7483 51.7554 40.7378Q51.9694 40.7273 52.1836 40.7273L52.1856 40.7273Q52.3998 40.7273 52.6138 40.7378Q52.8277 40.7483 53.0409 40.7693Q53.2541 40.7903 53.466 40.8217Q53.6779 40.8532 53.888 40.8949Q54.0981 40.9367 54.3059 40.9888Q54.5137 41.0408 54.7187 41.103Q54.9237 41.1652 55.1254 41.2374Q55.3271 41.3095 55.525 41.3915Q55.7229 41.4735 55.9166 41.5651Q56.1102 41.6567 56.2991 41.7577Q56.4881 41.8586 56.6718 41.9688Q56.8555 42.0789 57.0337 42.1979Q57.2118 42.3169 57.3838 42.4445Q57.5559 42.5721 57.7215 42.708Q57.8871 42.8439 58.0458 42.9878Q58.2045 43.1317 58.356 43.2831Q58.5075 43.4346 58.6513 43.5933Q58.7952 43.7521 58.9311 43.9177Q59.067 44.0832 59.1946 44.2553Q59.3222 44.4274 59.4412 44.6055Q59.5602 44.7836 59.6704 44.9673Q59.7805 45.1511 59.8815 45.34Q59.9825 45.5289 60.0741 45.7226Q60.1657 45.9162 60.2476 46.1141Q60.3296 46.3121 60.4018 46.5137Q60.4739 46.7155 60.5361 46.9204Q60.5983 47.1254 60.6504 47.3332Q60.7024 47.541 60.7442 47.7511Q60.786 47.9612 60.8174 48.1731Q60.8489 48.385 60.8699 48.5982Q60.8909 48.8114 60.9014 49.0254Q60.9119 49.2393 60.9119 49.4535L60.9119 119.274Q60.9119 119.488 60.9014 119.702Q60.8909 119.916 60.8699 120.129Q60.8489 120.342 60.8174 120.554Q60.786 120.766 60.7442 120.976Q60.7024 121.186 60.6504 121.394Q60.5983 121.602 60.5361 121.807Q60.4739 122.012 60.4018 122.214Q60.3296 122.415 60.2476 122.613Q60.1657 122.811 60.0741 123.005Q59.9825 123.198 59.8815 123.387Q59.7805 123.576 59.6704 123.76Q59.5602 123.944 59.4412 124.122Q59.3222 124.3 59.1946 124.472Q59.067 124.644 58.9311 124.81Q58.7952 124.975 58.6514 125.134Q58.5075 125.293 58.356 125.444Q58.2045 125.596 58.0458 125.739Q57.8871 125.883 57.7215 126.019Q57.5559 126.155 57.3838 126.283Q57.2118 126.41 57.0337 126.529Q56.8555 126.648 56.6718 126.758Q56.4881 126.869 56.2991 126.97Q56.1102 127.071 55.9166 127.162Q55.7229 127.254 55.525 127.336Q55.3271 127.418 55.1254 127.49Q54.9237 127.562 54.7187 127.624Q54.5137 127.686 54.3059 127.738Q54.0981 127.791 53.888 127.832Q53.6779 127.874 53.466 127.906Q53.2541 127.937 53.0409 127.958Q52.8277 127.979 52.6138 127.989Q52.3998 128 52.1856 128L52.1836 128Q51.9694 128 51.7554 127.989Q51.5415 127.979 51.3283 127.958Q51.1151 127.937 50.9032 127.906Q50.6913 127.874 50.4812 127.832Q50.2711 127.791 50.0633 127.738Q49.8555 127.686 49.6505 127.624Q49.4455 127.562 49.2438 127.49Q49.0421 127.418 48.8442 127.336Q48.6463 127.254 48.4526 127.162Q48.259 127.071 48.0701 126.97Q47.8811 126.869 47.6974 126.758Q47.5137 126.648 47.3355 126.529Q47.1574 126.41 46.9854 126.283Q46.8133 126.155 46.6477 126.019Q46.4821 125.883 46.3234 125.739Q46.1647 125.596 46.0132 125.444Q45.8617 125.293 45.7179 125.134Q45.574 124.975 45.4381 124.81Q45.3022 124.644 45.1746 124.472Q45.047 124.3 44.928 124.122Q44.809 123.944 44.6988 123.76Q44.5887 123.576 44.4877 123.387Q44.3867 123.198 44.2952 123.005Q44.2036 122.811 44.1216 122.613Q44.0396 122.415 43.9674 122.214Q43.8953 122.012 43.8331 121.807Q43.7709 121.602 43.7188 121.394Q43.6668 121.186 43.625 120.976Q43.5832 120.766 43.5518 120.554Q43.5204 120.342 43.4994 120.129Q43.4784 119.916 43.4678 119.702Q43.4573 119.488 43.4573 119.274L43.4573 80.2223C40.3193 81.1999 36.8228 81.7455 33.1369 81.7455C28.7004 81.7455 24.5385 80.9551 20.9455 79.5724L20.9455 98.3283Q20.9455 99.0584 20.8241 99.7784Q20.7028 100.498 20.4635 101.188Q20.2242 101.878 19.8736 102.519Q19.5229 103.159 19.0708 103.732Q19.0562 103.2 18.9628 102.675Q18.8695 102.151 18.6993 101.646Q18.5292 101.141 18.2861 100.667Q18.0429 100.193 17.7322 99.7601Q17.485 99.4158 17.1988 99.1031Q16.9126 98.7905 16.5914 98.5138Q16.2702 98.2372 15.9186 98.0005Q15.567 97.7638 15.1899 97.5703Q14.8127 97.3768 14.4154 97.2292Q14.018 97.0817 13.606 96.9822Q13.194 96.8826 12.7731 96.8325Q12.3522 96.7824 11.9283 96.7824L11.9255 96.7824Q11.5016 96.7824 11.0807 96.8325Q10.6598 96.8827 10.2478 96.9822Q9.83577 97.0817 9.4384 97.2292Q9.04103 97.3768 8.6639 97.5703Q8.28676 97.7638 7.93515 98.0005Q7.58353 98.2372 7.26237 98.5138Q6.94121 98.7905 6.65501 99.1031Q6.3688 99.4158 6.12157 99.7601Q5.60696 100.477 5.28215 101.297Q4.95733 102.117 4.84183 102.992Q4.51255 102.471 4.2597 101.91Q4.00685 101.348 3.83544 100.756Q3.66403 100.164 3.57747 99.5543Q3.49091 98.9444 3.49091 98.3283L3.49091 40.1445Q3.49091 39.9302 3.50142 39.7163Q3.51193 39.5023 3.53293 39.2891Q3.55393 39.0759 3.58536 38.864Q3.61679 38.6521 3.65858 38.442Q3.70037 38.2319 3.75242 38.0241Q3.80447 37.8163 3.86666 37.6113Q3.92884 37.4063 4.00101 37.2047Q4.07318 37.003 4.15516 36.805Q4.23713 36.6071 4.32872 36.4135Q4.42031 36.2198 4.5213 36.0309Q4.62228 35.842 4.73241 35.6582Q4.84254 35.4745 4.96155 35.2964Q5.08056 35.1183 5.20817 34.9462Q5.33578 34.7742 5.47168 34.6086Q5.60758 34.443 5.75144 34.2842Q5.8953 34.1255 6.04677 33.974Q6.19825 33.8226 6.35698 33.6787Q6.5157 33.5348 6.68129 33.3989Q6.84688 33.2631 7.01895 33.1354Q7.19101 33.0078 7.36912 32.8888Q7.54724 32.7698 7.73098 32.6597Q7.91472 32.5495 8.10364 32.4486Q8.29257 32.3476 8.48622 32.256Q8.67987 32.1644 8.87778 32.0824Q9.07569 32.0004 9.27739 31.9283Q9.47908 31.8561 9.68408 31.7939Q9.88907 31.7317 10.0969 31.6797Q10.3047 31.6276 10.5148 31.5859Q10.7249 31.5441 10.9368 31.5126Q11.1487 31.4812 11.3619 31.4602Q11.575 31.4392 11.789 31.4287Q12.003 31.4182 12.2172 31.4182Z" transform="translate(28.323639 0)" id="Ellipse-Difference-Union-Difference-Copy" fill="#FFFFFF" fill-rule="evenodd" stroke="none" />
      </g>
    </g>
  </g>
</svg>