<svg xmlns="http://www.w3.org/2000/svg" x="0px" y="0px" viewBox="0 0 38 45" width="40px">
    <style type="text/css">
        .st0{fill:none;stroke:#F55C59;stroke-width:2;stroke-linecap:round;stroke-linejoin:round;stroke-miterlimit:10;}
        .st1{fill:#F55C59;}
    </style>
    <g>
        <line class="st0" x1="21.2" y1="31.8" x2="9.8" y2="43.1"/>
        <path class="st1" d="M36.3,16.1c-0.4-1-1.4-1.7-2.6-1.7h-9.2c-0.2,0-0.5-0.1-0.6-0.3c-0.1-0.2-0.2-0.4-0.1-0.7l2.3-8
		c0.4-1.3-0.2-2.6-1.4-3.2c-1.2-0.6-2.5-0.4-3.4,0.7L8,18.8c-0.7,0.8-0.8,2-0.4,2.9c0.5,1,1.4,1.6,2.5,1.6h4.1
		c0.4,0,0.6,0.2,0.6,0.3c0.1,0.1,0.2,0.4,0.1,0.7l-4.2,9.5l1.8,0.8l4.1-9.5c0.4-0.9,0.3-1.8-0.2-2.6c-0.5-0.8-1.4-1.2-2.3-1.2h-4.1
		c-0.4,0-0.6-0.3-0.7-0.4c-0.1-0.1-0.2-0.5,0.1-0.8L22.9,4.2c0.4-0.4,0.8-0.2,0.9-0.2c0.1,0.1,0.5,0.3,0.4,0.9l-2.3,8
		c-0.2,0.8-0.1,1.7,0.4,2.4c0.5,0.7,1.3,1.1,2.2,1.1h9.2c0.5,0,0.7,0.4,0.7,0.5s0.2,0.5-0.2,0.8L14.1,37.4l0.6,2.2l20.9-20.5
		C36.5,18.3,36.7,17.2,36.3,16.1z"/>
        <circle class="st1" cx="11.7" cy="34.3" r="1"/>
        <line class="st0" x1="9.8" y1="8.7" x2="1.5" y2="19.3"/>
    </g>
</svg>
