<svg xmlns="http://www.w3.org/2000/svg" x="0px" y="0px"
     viewBox="0 0 40 34" width="38px">
    <style type="text/css">
        .st0{fill:none;stroke:#F55C59;stroke-width:2;stroke-linecap:round;stroke-miterlimit:10;}
        .st1{fill:#F55C59;}
        .st2{fill:none;stroke:#F55C59;stroke-width:2;stroke-linecap:round;stroke-linejoin:round;stroke-miterlimit:10;}
    </style>
    <g>
        <path class="st0" d="M29.4,12l-9.9,5.5L5.9,8.3c0,0-1.6-0.9-0.9-2.7c0.6-1.5,2.4-1.5,3.4-1.5"/>
        <circle class="st1" cx="2.1" cy="10.6" r="1"/>
        <circle class="st1" cx="36.8" cy="12.2" r="1"/>
        <circle class="st1" cx="29.4" cy="4.1" r="1"/>
        <circle class="st2" cx="35.9" cy="5.5" r="3"/>
        <g>
            <path class="st1" d="M35.8,12.2v12.3c0,2.8-2.2,5-5,5H8.1c-2.8,0-5-2.2-5-5V10.6h-2v13.9c0,3.9,3.1,7,7,7h22.7c3.9,0,7-3.1,7-7
			V12.2H35.8z"/>
            <rect x="8.4" y="3.2" class="st1" width="21" height="2"/>
        </g>
    </g>
</svg>
