<svg xmlns="http://www.w3.org/2000/svg" x="0px" y="0px" viewBox="0 0 45 45" width="38">
    <style type="text/css">
        .st0{fill:#F55C59;}
    </style>
    <g>
        <g>
            <path class="st0" d="M24,31.6c0,0.6-0.4,0.6-1,0.6c-0.6,0-1-0.2-1-0.7l0-2c-1-0.1-2-0.3-2.9-0.7c-0.4-0.2-0.6-0.5-0.6-1
			c0-0.6,0.4-1,1-1c0.3,0,0.5,0.1,0.6,0.1c0.8,0.4,1.7,0.6,2.6,0.6c1.5,0,2.3-0.7,2.3-2c0-1-0.9-1.7-1.8-2.1l-2.4-1.1
			c-1.6-0.7-2.4-1.9-2.4-3.5c0-2,1.6-3.3,3.4-3.8v-3.7c0-0.6,0.5-1.1,1.1-1.1c0.6,0,1,0.5,1,1.1v3.6c0.8,0.1,1.6,0.3,2.4,0.6
			c0.4,0.2,0.8,0.5,0.8,1c0,0.5-0.4,1-1,1c-0.1,0-0.2,0-0.4-0.1C25.3,17.4,24.6,17,23,17c-1,0-2.3,0.4-2.3,1.8c0,1,0.5,1.4,1.3,1.7
			l2.3,1c1.5,0.7,3,1.6,3,3.8c0,2-1.3,3.7-3.3,4.2L24,31.6z"/>
        </g>
        <g>
            <path class="st0" d="M31.6,40.7c-1.3,0-2.6-0.3-3.8-0.8c-3.6-1.6-6-5.2-5.8-8.8l2,0.1c-0.2,2.8,1.7,5.7,4.6,6.9
			c3.1,1.2,6.1,0.5,8-1.7l1.5,1.3C36.4,39.6,34.1,40.7,31.6,40.7z"/>
        </g>
        <circle class="st0" cx="22.5" cy="43.3" r="1"/>
        <path class="st0" d="M22.5,0.8c-12,0-21.8,9.8-21.8,21.8s9.8,21.8,21.8,21.8v-2c-10.9,0-19.8-8.9-19.8-19.8S11.6,2.8,22.5,2.8
		s19.8,8.9,19.8,19.8c0,5.9-2.8,11.4-6.9,15l1.3,1.5c4.7-4,7.6-9.9,7.6-16.5C44.3,10.5,34.5,0.8,22.5,0.8z"/>
    </g>
</svg>
