<svg xmlns="http://www.w3.org/2000/svg" x="0px" y="0px" viewBox="0 0 32 40" width="32px">
<style type="text/css">
	.st0{fill:#F55C59;}
	.st1{fill:none;stroke:#F55C59;stroke-width:2;stroke-linecap:round;stroke-linejoin:round;stroke-miterlimit:10;}
</style>
<g>
	<g>
		<circle class="st0" cx="25.4" cy="28.6" r="1"/>
		<path class="st0" d="M31.3,14.9c-0.3-1.1-1.3-1.8-2.4-2l-6.6-1c-0.3,0-0.6-0.2-0.7-0.5l-3-6h0c-0.5-1-1.5-1.6-2.6-1.6
			c-1.1,0-2.1,0.6-2.6,1.6l-3,6c-0.1,0.3-0.4,0.5-0.7,0.5l-6.6,1c-1.1,0.2-2,0.9-2.4,2s-0.1,2.2,0.7,3l4.8,4.7
			c0.2,0.2,0.3,0.5,0.3,0.8L5.4,30c-0.2,1.1,0.3,2.2,1.2,2.9c0.9,0.7,2.1,0.7,3.1,0.2l5.9-3.1c0.3-0.1,0.6-0.1,0.9,0l1.3,0.7
			l0.7-1.9l-1.1-0.6c-0.4-0.2-0.9-0.3-1.4-0.3c-0.5,0-0.9,0.1-1.4,0.3l-5.9,3.1c-0.3,0.2-0.7,0.1-1-0.1c-0.3-0.2-0.4-0.6-0.4-0.9
			l1.1-6.6c0.2-1-0.2-1.9-0.8-2.6l-4.8-4.7c-0.3-0.3-0.3-0.6-0.2-1s0.4-0.6,0.8-0.6l6.6-1c1-0.1,1.8-0.7,2.2-1.6l3-6
			c0.3-0.7,1.4-0.7,1.7,0l3,6c0.4,0.9,1.3,1.5,2.2,1.6l6.6,1c0.4,0.1,0.6,0.3,0.8,0.6s0,0.7-0.2,1l-4.8,4.7c-0.7,0.7-1,1.6-0.8,2.6
			l0.9,5.1l2-0.3l-0.9-5.1c-0.1-0.3,0-0.6,0.3-0.8l4.8-4.7C31.3,17.1,31.6,16,31.3,14.9z"/>
		<path class="st1" d="M17.7,29.5c0,0,5.9,2.8,7.6,9.2"/>
	</g>
	<circle class="st1" cx="5.2" cy="4.3" r="3"/>
</g>
</svg>
