<?xml version="1.0" encoding="utf-8"?>
<svg width="306px" height="68px" viewbox="0 0 306 68" version="1.1" xmlns:xlink="http://www.w3.org/1999/xlink" xmlns="http://www.w3.org/2000/svg">
  <g id="Group-7">
    <g id="Group-Copy-3">
      <path d="M54.2417 66.2085L70.6631 0.0251259Q70.5062 0 70.3472 0L48.3028 0Q48.2046 0 48.1068 0.00962572Q48.0091 0.0192514 47.9128 0.0384102Q47.8165 0.0575689 47.7225 0.0860762Q47.6285 0.114583 47.5378 0.152165Q47.447 0.189746 47.3604 0.236039Q47.2738 0.282333 47.1922 0.336892Q47.1105 0.391452 47.0346 0.453752Q46.9587 0.516052 46.8892 0.585493Q46.8198 0.654934 46.7575 0.730847Q46.6952 0.80676 46.6406 0.888414Q46.5861 0.970069 46.5398 1.05668Q46.4935 1.14329 46.4559 1.23401Q46.4183 1.32474 46.3898 1.41872Q46.3613 1.5127 46.3422 1.60901Q46.323 1.70533 46.3134 1.80306Q46.3038 1.90079 46.3038 1.999L46.3038 18.5212C50.8631 21.8348 53.8274 27.21 53.8274 33.2775C53.8274 39.345 50.8631 44.7202 46.3038 48.0338L46.3038 64.5537Q46.3038 64.6519 46.3134 64.7496Q46.323 64.8474 46.3422 64.9437Q46.3613 65.04 46.3898 65.134Q46.4183 65.2279 46.4559 65.3187Q46.4935 65.4094 46.5398 65.496Q46.5861 65.5826 46.6406 65.6643Q46.6952 65.7459 46.7575 65.8218Q46.8198 65.8978 46.8892 65.9672Q46.9587 66.0366 47.0346 66.0989Q47.1105 66.1612 47.1922 66.2158Q47.2738 66.2704 47.3604 66.3166Q47.447 66.3629 47.5378 66.4005Q47.6285 66.4381 47.7225 66.4666Q47.8165 66.4951 47.9128 66.5143Q48.0091 66.5334 48.1068 66.5431Q48.2046 66.5527 48.3028 66.5527L54.045 66.5527L54.2417 66.2085ZM-2.76107e-06 4.2085L-2.82173e-06 2.86375Q-2.83034e-06 2.66686 0.0384074 2.47376Q0.0768176 2.28066 0.152162 2.09876Q0.227506 1.91686 0.33689 1.75316Q0.446273 1.58946 0.585491 1.45024Q0.724709 1.31102 0.888412 1.20164Q1.05212 1.09226 1.23401 1.01691Q1.41591 0.941567 1.60901 0.903156Q1.80211 0.864746 1.999 0.864746L24.0433 0.864746Q24.1415 0.864746 24.2393 0.874372Q24.337 0.883998 24.4333 0.903156Q24.5296 0.922315 24.6236 0.950822Q24.7176 0.97933 24.8083 1.01691Q24.899 1.05449 24.9857 1.10079Q25.0723 1.14708 25.1539 1.20164Q25.2356 1.2562 25.3115 1.3185Q25.3874 1.3808 25.4568 1.45024Q25.5263 1.51968 25.5886 1.59559Q25.6509 1.67151 25.7054 1.75316Q25.76 1.83482 25.8063 1.92142Q25.8526 2.00803 25.8902 2.09876Q25.9278 2.18949 25.9563 2.28347Q25.9848 2.37744 26.0039 2.47376Q26.0231 2.57008 26.0327 2.66781Q26.0423 2.76554 26.0423 2.86375L26.0423 19.3835C21.4825 22.6971 18.5178 28.0725 18.5178 34.1405C18.5178 40.2084 21.4825 45.5838 26.0423 48.8974L26.0423 65.4185Q26.0423 65.5167 26.0327 65.6144Q26.0231 65.7122 26.0039 65.8085Q25.9848 65.9048 25.9563 65.9988Q25.9278 66.0927 25.8902 66.1835Q25.8526 66.2742 25.8063 66.3608Q25.76 66.4474 25.7054 66.5291Q25.6509 66.6107 25.5886 66.6866Q25.5263 66.7626 25.4568 66.832Q25.3874 66.9014 25.3115 66.9637Q25.2356 67.026 25.1539 67.0806Q25.0723 67.1351 24.9857 67.1814Q24.8991 67.2277 24.8083 67.2653Q24.7176 67.3029 24.6236 67.3314Q24.5296 67.3599 24.4333 67.3791Q24.337 67.3982 24.2393 67.4079Q24.1415 67.4175 24.0433 67.4175L19.273 67.4175L3.2417 4.2085L-2.76107e-06 4.2085Z" id="Group-Difference" fill="#01D3B0" fill-rule="evenodd" stroke="none" />
      <g id="user-tie" transform="translate(23.142578 16.86914)">
        <path d="M12.8362 14.6699C16.8876 14.6699 20.1712 11.3864 20.1712 7.33495C20.1712 3.28354 16.8876 0 12.8362 0C8.78477 0 5.50122 3.28354 5.50122 7.33495C5.50122 11.3864 8.78477 14.6699 12.8362 14.6699L12.8362 14.6699ZM18.326 16.5378L15.5868 27.5058L13.7531 19.7125L15.5868 16.5034L10.0856 16.5034L11.9193 19.7125L10.0856 27.5058L7.34644 16.5378C3.26063 16.7326 0 20.0735 0 24.2051L0 26.589C0 28.1075 1.23205 29.3396 2.75062 29.3396L22.9218 29.3396C24.4404 29.3396 25.6724 28.1075 25.6724 26.589L25.6724 24.2051C25.6724 20.0735 22.4118 16.7326 18.326 16.5378L18.326 16.5378Z" id="Shape" fill="#FFF" fill-rule="evenodd" stroke="none" />
      </g>
    </g>
    <path d="M37.1521 9.07217Q38.8321 10.5602 41.6161 10.5602Q44.3521 10.5602 46.0321 9.07217Q47.7121 7.58418 47.7121 5.32817Q47.7121 3.02418 46.0321 1.51218Q44.3521 0.000175476 41.6161 0.000171661Q38.8321 0.000171661 37.1521 1.51218Q35.4721 3.02418 35.4721 5.32817Q35.4721 7.58418 37.1521 9.07217ZM193.104 9.07217Q194.784 10.5602 197.568 10.5602Q200.304 10.5602 201.984 9.07217Q203.664 7.58418 203.664 5.32817Q203.664 3.02418 201.984 1.51218Q200.304 0.000175476 197.568 0.000171661Q194.784 0.000171661 193.104 1.51218Q191.424 3.02418 191.424 5.32817Q191.424 7.58418 193.104 9.07217ZM31.4401 39.7922L31.4401 5.80817L20.7841 5.80817L20.7841 18.0482L10.6561 18.0482L10.6561 5.80817L9.77516e-05 5.80817L9.77516e-05 39.7922L10.6561 39.7922L10.6561 26.5442L20.7841 26.5442L20.7841 39.7922L31.4401 39.7922ZM129.984 23.3042Q131.472 20.6882 131.472 17.4722Q131.472 12.1442 128.136 8.97617Q124.8 5.80818 118.56 5.80817L103.68 5.80817L103.68 39.7922L114.336 39.7922L114.336 28.9922L118.56 28.9922Q122.688 28.9922 125.592 27.4562Q128.496 25.9202 129.984 23.3042ZM100.176 28.1282Q100.32 27.1202 100.32 26.0162Q100.32 21.8402 98.5681 18.7682Q96.8161 15.6962 93.6721 14.0402Q90.5281 12.3842 86.4961 12.3842Q82.4641 12.3842 79.3201 14.0642Q76.1761 15.7442 74.4241 18.8882Q72.6721 22.0322 72.6721 26.2562Q72.6721 30.4802 74.4241 33.6242Q76.1761 36.7682 79.3201 38.4482Q82.4641 40.1282 86.4961 40.1282Q89.8561 40.1282 92.6641 38.8082Q95.4721 37.4882 97.3201 35.2082Q99.1681 32.9282 99.7441 30.0482L88.4641 30.0482Q87.6961 31.6322 85.9681 31.6322Q83.2801 31.6322 83.0401 28.1282L100.176 28.1282ZM160.896 28.1282Q161.04 27.1202 161.04 26.0162Q161.04 21.8402 159.288 18.7682Q157.536 15.6962 154.392 14.0402Q151.248 12.3842 147.216 12.3842Q143.184 12.3842 140.04 14.0642Q136.896 15.7442 135.144 18.8882Q133.392 22.0322 133.392 26.2562Q133.392 30.4802 135.144 33.6242Q136.896 36.7682 140.04 38.4482Q143.184 40.1282 147.216 40.1282Q150.576 40.1282 153.384 38.8082Q156.192 37.4882 158.04 35.2082Q159.888 32.9282 160.464 30.0482L149.184 30.0482Q148.416 31.6322 146.688 31.6322Q144 31.6322 143.76 28.1282L160.896 28.1282ZM169.656 38.8802Q172.608 40.1282 176.448 40.1282Q179.952 40.1282 182.568 39.0242Q185.184 37.9202 186.576 36.0002Q187.968 34.0802 187.968 31.6802Q187.968 28.6082 186.48 26.8562Q184.992 25.1042 182.976 24.3842Q180.96 23.6642 178.032 23.0882Q175.824 22.6562 174.816 22.2482Q173.808 21.8402 173.808 21.0242Q173.808 20.4002 174.24 20.0882Q174.672 19.7762 175.488 19.7762Q176.784 19.7762 177.552 20.3762Q178.32 20.9762 178.56 22.0802L188.016 22.0802Q187.392 17.7602 184.296 15.0722Q181.2 12.3842 175.728 12.3842Q172.032 12.3842 169.44 13.5602Q166.848 14.7362 165.528 16.7762Q164.208 18.8162 164.208 21.3122Q164.208 24.1922 165.624 25.8242Q167.04 27.4562 168.936 28.1282Q170.832 28.8002 173.76 29.3762Q176.16 29.8562 177.168 30.2402Q178.176 30.6242 178.176 31.5362Q178.176 32.0642 177.696 32.4242Q177.216 32.7842 176.4 32.7842Q175.104 32.7842 174.264 32.2082Q173.424 31.6322 173.232 30.4322L163.008 30.4322Q163.248 33.2162 164.976 35.4242Q166.704 37.6322 169.656 38.8802ZM66.3361 13.9442Q63.9841 15.3602 62.3521 17.7122L62.3521 12.7202L51.6961 12.7202L51.6961 39.7922L62.3521 39.7922L62.3521 28.7042Q62.3521 26.0162 63.7681 24.9602Q65.1841 23.9042 68.2081 23.9042L71.2321 23.9042L71.2321 12.5282Q68.6881 12.5282 66.3361 13.9442ZM233.88 15.6482Q231.264 12.5282 226.608 12.5282Q223.728 12.5282 221.64 13.7282Q219.552 14.9282 218.304 16.8482L218.304 12.7202L207.648 12.7202L207.648 39.7922L218.304 39.7922L218.304 25.4402Q218.304 23.5202 219.312 22.3922Q220.32 21.2642 222.096 21.2642Q223.824 21.2642 224.856 22.3922Q225.888 23.5202 225.888 25.4402L225.888 39.7922L236.496 39.7922L236.496 24.0962Q236.496 18.7682 233.88 15.6482ZM46.8961 39.7922L46.8961 12.7202L36.2401 12.7202L36.2401 39.7922L46.8961 39.7922ZM192.192 39.7922L202.848 39.7922L202.848 12.7202L192.192 12.7202L192.192 39.7922ZM119.94 19.7164Q119.115 20.5922 117.36 20.5922L114.336 20.5922L114.336 14.3522L117.36 14.3522Q120.672 14.3522 120.672 17.4722Q120.672 18.9391 119.94 19.7164ZM88.6561 21.4322Q89.5201 22.1282 89.5201 23.4722L83.1841 23.4722Q83.6641 20.7362 86.4961 20.7362Q87.7921 20.7362 88.6561 21.4322ZM149.376 21.4322Q150.24 22.1282 150.24 23.4722L143.904 23.4722Q144.384 20.7362 147.216 20.7362Q148.512 20.7362 149.376 21.4322Z" transform="translate(68.59668 15.356445)" id="irepesin-Copy-Intersect-5" fill="#FFF" fill-rule="evenodd" stroke="none" />
  </g>
</svg>