<svg width="41" height="39" viewBox="0 0 41 39" fill="none" xmlns="http://www.w3.org/2000/svg">
<path fill-rule="evenodd" clip-rule="evenodd" d="M0 2.39329V1.62863C0 1.554 0.00728037 1.48008 0.0218411 1.40687C0.0364018 1.33367 0.0579631 1.26259 0.0865249 1.19364C0.115087 1.12469 0.150101 1.05918 0.191566 0.997121C0.233032 0.935065 0.280153 0.877649 0.332928 0.824872C0.385703 0.772096 0.44312 0.724976 0.505177 0.683512C0.567235 0.642044 0.632742 0.60703 0.701697 0.578469C0.770649 0.549907 0.841727 0.528346 0.914932 0.513785C0.988131 0.499224 1.06205 0.491943 1.13669 0.491943H13.6717C13.7089 0.491943 13.746 0.493768 13.7831 0.497417C13.8202 0.501066 13.8569 0.506522 13.8934 0.513785C13.93 0.521047 13.966 0.530082 14.0017 0.540889C14.0373 0.551696 14.0723 0.564222 14.1067 0.578469C14.1411 0.592715 14.1747 0.608612 14.2076 0.62616C14.2404 0.643712 14.2723 0.662829 14.3032 0.683512C14.3342 0.704195 14.364 0.726344 14.3928 0.749961C14.4216 0.773578 14.4491 0.798549 14.4754 0.824872C14.5018 0.851196 14.5268 0.878746 14.5504 0.907522C14.574 0.936303 14.5961 0.966169 14.6168 0.997121C14.6375 1.02807 14.6566 1.05997 14.6742 1.0928C14.6917 1.12563 14.7076 1.15924 14.7219 1.19364C14.7361 1.22803 14.7486 1.26304 14.7595 1.29867C14.7703 1.33429 14.7793 1.37036 14.7865 1.40687C14.7938 1.44339 14.7993 1.48017 14.8029 1.51722C14.8066 1.55427 14.8084 1.5914 14.8084 1.62863V11.0218C12.2154 12.906 10.5296 15.9627 10.5296 19.4132C10.5296 22.8636 12.2154 25.9203 14.8084 27.8045V37.199C14.8084 37.2362 14.8066 37.2733 14.8029 37.3104C14.7993 37.3474 14.7938 37.3842 14.7865 37.4207C14.7793 37.4572 14.7703 37.4933 14.7595 37.5289C14.7487 37.5645 14.7361 37.5995 14.7219 37.6339C14.7076 37.6684 14.6917 37.702 14.6742 37.7348C14.6566 37.7676 14.6375 37.7995 14.6168 37.8305C14.5961 37.8614 14.574 37.8913 14.5504 37.9201C14.5268 37.9488 14.5018 37.9764 14.4754 38.0027C14.4491 38.0291 14.4216 38.054 14.3928 38.0776C14.364 38.1012 14.3342 38.1234 14.3032 38.1441C14.2723 38.1648 14.2404 38.1839 14.2076 38.2014C14.1747 38.219 14.1411 38.2349 14.1067 38.2491C14.0723 38.2634 14.0373 38.2759 14.0017 38.2867C13.966 38.2975 13.93 38.3066 13.8934 38.3138C13.8569 38.3211 13.8202 38.3265 13.7831 38.3302C13.7461 38.3338 13.7089 38.3357 13.6717 38.3357H10.9594L1.8436 2.39329H0ZM27.466 0H40.0011C40.0615 0 40.1216 0.0047951 40.1813 0.0143842L30.8436 37.6483L30.7319 37.8437H27.466C27.4288 37.8437 27.3917 37.8419 27.3546 37.8382C27.3175 37.8346 27.2808 37.8291 27.2443 37.8219C27.2078 37.8146 27.1717 37.8055 27.1361 37.7947C27.1004 37.7839 27.0654 37.7714 27.031 37.7572C26.9966 37.7429 26.963 37.727 26.9302 37.7094C26.8973 37.6919 26.8654 37.6728 26.8345 37.6521C26.8035 37.6314 26.7737 37.6093 26.7449 37.5857C26.7161 37.562 26.6886 37.5371 26.6623 37.5108C26.6359 37.4845 26.611 37.4569 26.5873 37.4281C26.5637 37.3993 26.5416 37.3695 26.5209 37.3385C26.5002 37.3076 26.4811 37.2757 26.4635 37.2428C26.446 37.21 26.4301 37.1764 26.4158 37.142C26.4016 37.1076 26.3891 37.0726 26.3782 37.037C26.3674 37.0014 26.3584 36.9653 26.3512 36.9288C26.3439 36.8923 26.3384 36.8555 26.3348 36.8184C26.3312 36.7814 26.3293 36.7442 26.3293 36.707V27.3135C28.922 25.4293 30.6076 22.3727 30.6076 18.9225C30.6076 15.4723 28.922 12.4158 26.3293 10.5316V1.13668C26.3293 1.06205 26.3366 0.988132 26.3512 0.914931C26.3657 0.84173 26.3873 0.770651 26.4158 0.701696C26.4444 0.63274 26.4794 0.567234 26.5209 0.505178C26.5624 0.44312 26.6095 0.385703 26.6623 0.332928C26.715 0.280152 26.7725 0.233032 26.8345 0.191566C26.8966 0.150101 26.9621 0.115087 27.031 0.0865251C27.1 0.0579632 27.1711 0.0364019 27.2443 0.0218411C27.3175 0.00728038 27.3914 0 27.466 0ZM20.4584 17.934C22.7622 17.934 24.6293 16.0669 24.6293 13.7631C24.6293 11.4594 22.7622 9.59229 20.4584 9.59229C18.1546 9.59229 16.2875 11.4594 16.2875 13.7631C16.2875 16.0669 18.1546 17.934 20.4584 17.934ZM23.5802 18.9964L22.0226 25.2331L20.9799 20.8015L22.0226 18.9768H18.8945L19.9372 20.8015L18.8945 25.2331L17.3369 18.9964C15.0136 19.1071 13.1595 21.0069 13.1595 23.3562V24.7118C13.1595 25.5752 13.8601 26.2758 14.7236 26.2758H26.1935C27.057 26.2758 27.7575 25.5752 27.7575 24.7118V23.3562C27.7575 21.0069 25.9035 19.1071 23.5802 18.9964Z" fill="#09A854"/>
</svg>
