<svg width="154" height="39" viewBox="0 0 154 39" fill="none" xmlns="http://www.w3.org/2000/svg">
<path fill-rule="evenodd" id="h" clip-rule="evenodd" d="M0 2.39329V1.62863C0 1.554 0.00728037 1.48008 0.0218411 1.40687C0.0364018 1.33367 0.0579631 1.26259 0.0865249 1.19364C0.115087 1.12469 0.150101 1.05918 0.191566 0.997121C0.233032 0.935065 0.280153 0.877649 0.332928 0.824872C0.385703 0.772096 0.44312 0.724976 0.505177 0.683512C0.567235 0.642044 0.632742 0.60703 0.701697 0.578469C0.770649 0.549907 0.841727 0.528346 0.914932 0.513785C0.988131 0.499224 1.06205 0.491943 1.13669 0.491943H13.6717C13.7089 0.491943 13.746 0.493768 13.7831 0.497417C13.8202 0.501066 13.8569 0.506522 13.8934 0.513785C13.93 0.521047 13.966 0.530082 14.0017 0.540889C14.0373 0.551696 14.0723 0.564222 14.1067 0.578469C14.1411 0.592715 14.1747 0.608612 14.2076 0.62616C14.2404 0.643712 14.2723 0.662829 14.3032 0.683512C14.3342 0.704195 14.364 0.726344 14.3928 0.749961C14.4216 0.773578 14.4491 0.798549 14.4754 0.824872C14.5018 0.851196 14.5268 0.878746 14.5504 0.907522C14.574 0.936303 14.5961 0.966169 14.6168 0.997121C14.6375 1.02807 14.6566 1.05997 14.6742 1.0928C14.6917 1.12563 14.7076 1.15924 14.7219 1.19364C14.7361 1.22803 14.7486 1.26304 14.7595 1.29867C14.7703 1.33429 14.7793 1.37036 14.7865 1.40687C14.7938 1.44339 14.7993 1.48017 14.8029 1.51722C14.8066 1.55427 14.8084 1.5914 14.8084 1.62863V11.0218C12.2154 12.906 10.5296 15.9627 10.5296 19.4132C10.5296 22.8636 12.2154 25.9203 14.8084 27.8045V37.199C14.8084 37.2362 14.8066 37.2733 14.8029 37.3104C14.7993 37.3474 14.7938 37.3842 14.7865 37.4207C14.7793 37.4572 14.7703 37.4933 14.7595 37.5289C14.7487 37.5645 14.7361 37.5995 14.7219 37.6339C14.7076 37.6684 14.6917 37.702 14.6742 37.7348C14.6566 37.7676 14.6375 37.7995 14.6168 37.8305C14.5961 37.8614 14.574 37.8913 14.5504 37.9201C14.5268 37.9488 14.5018 37.9764 14.4754 38.0027C14.4491 38.0291 14.4216 38.054 14.3928 38.0776C14.364 38.1012 14.3342 38.1234 14.3032 38.1441C14.2723 38.1648 14.2404 38.1839 14.2076 38.2014C14.1747 38.219 14.1411 38.2349 14.1067 38.2491C14.0723 38.2634 14.0373 38.2759 14.0017 38.2867C13.966 38.2975 13.93 38.3066 13.8934 38.3138C13.8569 38.3211 13.8202 38.3265 13.7831 38.3302C13.7461 38.3338 13.7089 38.3357 13.6717 38.3357H10.9594L1.8436 2.39329H0ZM27.466 0H40.0011C40.0615 0 40.1216 0.0047951 40.1813 0.0143842L30.8436 37.6483L30.7319 37.8437H27.466C27.4288 37.8437 27.3917 37.8419 27.3546 37.8382C27.3175 37.8346 27.2808 37.8291 27.2443 37.8219C27.2078 37.8146 27.1717 37.8055 27.1361 37.7947C27.1004 37.7839 27.0654 37.7714 27.031 37.7572C26.9966 37.7429 26.963 37.727 26.9302 37.7094C26.8973 37.6919 26.8654 37.6728 26.8345 37.6521C26.8035 37.6314 26.7737 37.6093 26.7449 37.5857C26.7161 37.562 26.6886 37.5371 26.6623 37.5108C26.6359 37.4845 26.611 37.4569 26.5873 37.4281C26.5637 37.3993 26.5416 37.3695 26.5209 37.3385C26.5002 37.3076 26.4811 37.2757 26.4635 37.2428C26.446 37.21 26.4301 37.1764 26.4158 37.142C26.4016 37.1076 26.3891 37.0726 26.3782 37.037C26.3674 37.0014 26.3584 36.9653 26.3512 36.9288C26.3439 36.8923 26.3384 36.8555 26.3348 36.8184C26.3312 36.7814 26.3293 36.7442 26.3293 36.707V27.3135C28.922 25.4293 30.6076 22.3727 30.6076 18.9225C30.6076 15.4723 28.922 12.4158 26.3293 10.5316V1.13668C26.3293 1.06205 26.3366 0.988132 26.3512 0.914931C26.3657 0.84173 26.3873 0.770651 26.4158 0.701696C26.4444 0.63274 26.4794 0.567234 26.5209 0.505178C26.5624 0.44312 26.6095 0.385703 26.6623 0.332928C26.715 0.280152 26.7725 0.233032 26.8345 0.191566C26.8966 0.150101 26.9621 0.115087 27.031 0.0865251C27.1 0.0579632 27.1711 0.0364019 27.2443 0.0218411C27.3175 0.00728038 27.3914 0 27.466 0ZM20.4584 17.934C22.7622 17.934 24.6293 16.0669 24.6293 13.7631C24.6293 11.4594 22.7622 9.59229 20.4584 9.59229C18.1546 9.59229 16.2875 11.4594 16.2875 13.7631C16.2875 16.0669 18.1546 17.934 20.4584 17.934ZM23.5802 18.9964L22.0226 25.2331L20.9799 20.8015L22.0226 18.9768H18.8945L19.9372 20.8015L18.8945 25.2331L17.3369 18.9964C15.0136 19.1071 13.1595 21.0069 13.1595 23.3562V24.7118C13.1595 25.5752 13.8601 26.2758 14.7236 26.2758H26.1935C27.057 26.2758 27.7575 25.5752 27.7575 24.7118V23.3562C27.7575 21.0069 25.9035 19.1071 23.5802 18.9964Z" fill="#09A854"/>
<path fill-rule="evenodd" id="text" clip-rule="evenodd" d="M54.455 22.5065C55.0114 22.9993 55.7505 23.2456 56.6725 23.2456C57.5786 23.2456 58.3098 22.9993 58.8661 22.5065C59.4225 22.0137 59.7006 21.3938 59.7006 20.6467C59.7006 19.8837 59.4225 19.2518 58.8661 18.7511C58.3098 18.2504 57.5786 18 56.6725 18C55.7505 18 55.0114 18.2504 54.455 18.7511C53.8987 19.2518 53.6205 19.8837 53.6205 20.6467C53.6205 21.3938 53.8987 22.0137 54.455 22.5065ZM131.924 22.5065C132.48 22.9993 133.219 23.2456 134.141 23.2456C135.047 23.2456 135.778 22.9993 136.335 22.5065C136.891 22.0137 137.169 21.3938 137.169 20.6467C137.169 19.8837 136.891 19.2518 136.335 18.7511C135.778 18.2504 135.047 18 134.141 18C133.219 18 132.48 18.2504 131.924 18.7511C131.367 19.2518 131.089 19.8837 131.089 20.6467C131.089 21.3938 131.367 22.0137 131.924 22.5065ZM49.6176 37.7665C50.7222 37.7665 51.6176 36.8711 51.6176 35.7665V22.8851C51.6176 21.7805 50.7222 20.8851 49.6176 20.8851H48.3243C47.2197 20.8851 46.3243 21.7805 46.3243 22.8851V24.9653C46.3243 26.0699 45.4289 26.9653 44.3243 26.9653H43.2933C42.1887 26.9653 41.2933 26.0699 41.2933 24.9653V22.8851C41.2933 21.7805 40.3979 20.8851 39.2933 20.8851H38C36.8954 20.8851 36 21.7805 36 22.8851V35.7665C36 36.8711 36.8954 37.7665 38 37.7665H39.2933C40.3979 37.7665 41.2933 36.8711 41.2933 35.7665V33.1856C41.2933 32.081 42.1887 31.1856 43.2933 31.1856H44.3243C45.4289 31.1856 46.3243 32.081 46.3243 33.1856V35.7665C46.3243 36.8711 47.2197 37.7665 48.3243 37.7665H49.6176ZM100.569 29.5762C101.062 28.7099 101.308 27.7442 101.308 26.6792C101.308 24.9147 100.756 23.508 99.6509 22.4588C98.5459 21.4097 96.9607 20.8851 94.8942 20.8851H89.5027C88.3981 20.8851 87.5027 21.7805 87.5027 22.8851V35.7665C87.5027 36.8711 88.3981 37.7665 89.5027 37.7665H90.796C91.9006 37.7665 92.796 36.8711 92.796 35.7665V34.4017C92.796 33.2971 93.6914 32.4017 94.796 32.4017H94.8942C96.2613 32.4017 97.4256 32.1473 98.3869 31.6387C99.3489 31.13 100.076 30.4425 100.569 29.5762ZM84.7097 31.9725C85.3136 31.9725 85.8336 31.5273 85.8336 30.9234V30.9234C85.8336 29.5405 85.5434 28.3403 84.9631 27.323C84.3829 26.3056 83.5722 25.5228 82.531 24.9743C81.4899 24.4259 80.3016 24.1517 78.9664 24.1517C77.6312 24.1517 76.4429 24.4299 75.4018 24.9863C74.3606 25.5426 73.5499 26.3414 72.9697 27.3826C72.3895 28.4237 72.0994 29.6437 72.0994 31.0426C72.0994 32.4414 72.3895 33.6614 72.9697 34.7026C73.5499 35.7438 74.3606 36.5425 75.4018 37.0989C76.4429 37.6552 77.6312 37.9334 78.9664 37.9334C80.0791 37.9334 81.1004 37.7149 82.0303 37.2777C82.9602 36.8406 83.7312 36.2445 84.3432 35.4894C84.4322 35.3796 84.5168 35.2677 84.5969 35.1537C85.3224 34.121 84.3698 32.9262 83.1078 32.9262H81.1971C80.4307 32.9262 79.7615 33.5413 79.0088 33.6855C78.9128 33.7039 78.8113 33.7131 78.7041 33.7131C78.5572 33.7131 78.4214 33.6973 78.2966 33.6657C77.1737 33.3815 78.2329 31.9725 79.3912 31.9725H84.7097ZM114.873 31.9725C115.476 31.9725 115.996 31.5271 115.996 30.9234V30.9234C115.996 29.5404 115.706 28.3403 115.126 27.323C114.546 26.3056 113.735 25.5228 112.694 24.9743C111.653 24.4259 110.464 24.1517 109.129 24.1517C107.794 24.1517 106.606 24.4299 105.564 24.9863C104.523 25.5426 103.713 26.3414 103.132 27.3826C102.552 28.4237 102.262 29.6437 102.262 31.0426C102.262 32.4414 102.552 33.6614 103.132 34.7026C103.713 35.7438 104.523 36.5425 105.564 37.0989C106.606 37.6552 107.794 37.9334 109.129 37.9334C110.242 37.9334 111.263 37.7149 112.193 37.2777C113.123 36.8406 113.894 36.2445 114.506 35.4894C114.595 35.3798 114.679 35.2681 114.759 35.1543C115.485 34.1214 114.532 32.9262 113.27 32.9262H111.358C110.593 32.9262 109.925 33.5403 109.173 33.6852C109.077 33.7038 108.975 33.7131 108.867 33.7131C108.72 33.7131 108.585 33.6974 108.46 33.6659C107.337 33.3824 108.396 31.9725 109.555 31.9725H114.873ZM120.276 37.3135C121.254 37.7268 122.378 37.9334 123.65 37.9334C124.81 37.9334 125.824 37.7506 126.69 37.385C127.556 37.0194 128.22 36.5187 128.681 35.8829C129.142 35.247 129.372 34.5317 129.372 33.7369C129.372 32.7196 129.126 31.9208 128.633 31.3406C128.14 30.7604 127.56 30.3511 126.893 30.1127C126.225 29.8742 125.406 29.6596 124.437 29.4689C123.706 29.3258 123.173 29.1867 122.839 29.0516C122.505 28.9165 122.338 28.7138 122.338 28.4436C122.338 28.237 122.41 28.082 122.553 27.9787C122.696 27.8753 122.903 27.8237 123.173 27.8237C123.602 27.8237 123.944 27.923 124.198 28.1217V28.1217C124.66 28.482 125.117 28.9682 125.704 28.9682H127.087C128.305 28.9682 129.275 27.845 128.652 26.7986C128.361 26.3105 127.993 25.8733 127.548 25.487C126.523 24.5968 125.104 24.1517 123.292 24.1517C122.068 24.1517 121.027 24.3464 120.169 24.7359C119.31 25.1254 118.663 25.6579 118.225 26.3334C117.788 27.009 117.57 27.7601 117.57 28.5867C117.57 29.5404 117.804 30.2875 118.273 30.828C118.742 31.3684 119.29 31.7499 119.918 31.9725C120.546 32.195 121.345 32.4017 122.315 32.5924C123.11 32.7514 123.674 32.8945 124.008 33.0216C124.341 33.1488 124.508 33.3634 124.508 33.6654C124.508 33.8402 124.429 33.9873 124.27 34.1065C124.111 34.2257 123.896 34.2853 123.626 34.2853C123.197 34.2853 122.843 34.19 122.565 33.9992V33.9992C122.066 33.6567 121.607 33.117 121.001 33.117H119.153C117.981 33.117 117.03 34.1717 117.65 35.1666C117.741 35.3135 117.841 35.4568 117.951 35.5967C118.524 36.3279 119.299 36.9002 120.276 37.3135ZM68.952 24.9267C68.7064 25.0745 68.4727 25.2378 68.2508 25.4164C67.7997 25.7797 66.973 25.4889 66.973 24.9097V24.9097C66.973 24.5833 66.7084 24.3186 66.3819 24.3186H63.6797C62.5751 24.3186 61.6797 25.214 61.6797 26.3186V35.7665C61.6797 36.8711 62.5751 37.7665 63.6797 37.7665H64.973C66.0776 37.7665 66.973 36.8711 66.973 35.7665V32.2586C66.973 31.3684 67.2075 30.7485 67.6764 30.3988C68.1453 30.0491 68.8805 29.8742 69.8819 29.8742V29.8742C70.7115 29.8742 71.3841 29.2016 71.3841 28.372V26.2233C71.3841 25.1187 70.45 24.1938 69.4492 24.6612C69.2821 24.7393 69.1163 24.8278 68.952 24.9267ZM152.179 25.7731C151.313 24.7399 150.109 24.2233 148.567 24.2233C147.613 24.2233 146.79 24.422 146.099 24.8194C145.89 24.9395 145.693 25.0705 145.51 25.2124C145.141 25.4977 144.442 25.2539 144.442 24.7873V24.7873C144.442 24.5284 144.232 24.3186 143.973 24.3186H141.148C140.043 24.3186 139.148 25.214 139.148 26.3186V35.7665C139.148 36.8711 140.043 37.7665 141.148 37.7665H142.442C143.546 37.7665 144.442 36.8711 144.442 35.7665V30.6372C144.442 30.0014 144.609 29.4967 144.942 29.1232C145.276 28.7496 145.737 28.5628 146.325 28.5628C146.898 28.5628 147.355 28.7496 147.696 29.1232C148.038 29.4967 148.209 30.0014 148.209 30.6372V35.7665C148.209 36.8711 149.104 37.7665 150.209 37.7665H151.478C152.582 37.7665 153.478 36.8711 153.478 35.7665V29.9696C153.478 28.2052 153.045 26.8063 152.179 25.7731ZM57.2953 37.7665C58.3999 37.7665 59.2953 36.8711 59.2953 35.7665V26.3186C59.2953 25.214 58.3999 24.3186 57.2953 24.3186H56.002C54.8974 24.3186 54.002 25.214 54.002 26.3186V35.7665C54.002 36.8711 54.8974 37.7665 56.002 37.7665H57.2953ZM131.471 35.7665C131.471 36.8711 132.366 37.7665 133.471 37.7665H134.764C135.868 37.7665 136.764 36.8711 136.764 35.7665V26.3186C136.764 25.214 135.868 24.3186 134.764 24.3186H133.471C132.366 24.3186 131.471 25.214 131.471 26.3186V35.7665ZM95.5793 27.794C95.306 28.0841 94.879 28.2291 94.2981 28.2291V28.2291C93.4685 28.2291 92.796 27.5566 92.796 26.727V26.6315C92.796 25.8019 93.4685 25.1294 94.2981 25.1294V25.1294C95.395 25.1294 95.9434 25.646 95.9434 26.6792C95.9434 27.165 95.822 27.5366 95.5793 27.794ZM80.0394 28.6462V28.6462C80.53 29.0413 79.958 29.6595 79.3281 29.6595H79.0319C78.1392 29.6595 77.4709 28.6572 78.3226 28.3895C78.5117 28.3301 78.7263 28.3004 78.9664 28.3004C79.3956 28.3004 79.7533 28.4157 80.0394 28.6462ZM110.202 28.6462V28.6462C110.692 29.0413 110.12 29.6595 109.491 29.6595H109.194C108.302 29.6595 107.633 28.6572 108.485 28.3895C108.674 28.3301 108.889 28.3004 109.129 28.3004C109.558 28.3004 109.916 28.4157 110.202 28.6462Z" fill="#fff"/>
</svg>
