<?xml version="1.0" encoding="utf-8"?>
<svg width="175px" height="39px" viewbox="0 0 175 39" version="1.1" xmlns:xlink="http://www.w3.org/1999/xlink" xmlns="http://www.w3.org/2000/svg">
  <defs>
    <linearGradient x1="-2.2311678" y1="-2.0509677" x2="0.5" y2="1" id="gradient_1">
      <stop offset="0" stop-color="#D37D01" />
      <stop offset="1" stop-color="#09A854" />
    </linearGradient>
    <path d="M0 0L174 0L174 38.6667L0 38.6667L0 0Z" id="path_1" />
    <clipPath id="mask_1">
      <use xlink:href="#path_1" />
    </clipPath>
  </defs>
  <g id="logo-Copy">
    <path d="M0 0L174 0L174 38.6667L0 38.6667L0 0Z" id="Background" fill="none" fill-rule="evenodd" stroke="none" />
    <g clip-path="url(#mask_1)">
      <path d="M30.8436 37.6483L40.1813 0.0143842C40.1216 0.0047951 40.0615 0 40.0011 0L27.466 0C27.3914 0 27.3175 0.00728038 27.2443 0.0218411C27.1711 0.0364019 27.1 0.0579632 27.031 0.0865251Q26.9276 0.129368 26.8345 0.191566C26.7725 0.233032 26.715 0.280152 26.6623 0.332928C26.6095 0.385703 26.5624 0.44312 26.5209 0.505178C26.4794 0.567234 26.4444 0.63274 26.4158 0.701696C26.3873 0.770651 26.3657 0.84173 26.3512 0.914931C26.3366 0.988132 26.3293 1.06205 26.3293 1.13668L26.3293 10.5316C28.922 12.4158 30.6076 15.4723 30.6076 18.9225C30.6076 22.3727 28.922 25.4293 26.3293 27.3135L26.3293 36.707C26.3293 36.7442 26.3312 36.7814 26.3348 36.8184C26.3384 36.8555 26.3439 36.8923 26.3512 36.9288C26.3584 36.9653 26.3674 37.0014 26.3782 37.037C26.3891 37.0726 26.4016 37.1076 26.4158 37.142C26.4301 37.1764 26.446 37.21 26.4635 37.2428C26.4811 37.2757 26.5002 37.3076 26.5209 37.3385C26.5416 37.3695 26.5637 37.3993 26.5873 37.4281C26.611 37.4569 26.6359 37.4845 26.6623 37.5108C26.6886 37.5371 26.7161 37.562 26.7449 37.5857C26.7737 37.6093 26.8035 37.6314 26.8345 37.6521C26.8654 37.6728 26.8973 37.6919 26.9302 37.7094C26.963 37.727 26.9966 37.7429 27.031 37.7572C27.0654 37.7714 27.1004 37.7839 27.1361 37.7947C27.1717 37.8055 27.2078 37.8146 27.2443 37.8219C27.2808 37.8291 27.3175 37.8346 27.3546 37.8382C27.3917 37.8419 27.4288 37.8437 27.466 37.8437L30.7319 37.8437L30.8436 37.6483ZM0 2.39329L0 1.62863Q0 1.51668 0.0218411 1.40687Q0.0436822 1.29707 0.0865249 1.19364Q0.129368 1.09021 0.191566 0.997121Q0.253765 0.904037 0.332928 0.824872Q0.412091 0.745708 0.505177 0.683512Q0.598264 0.62131 0.701697 0.578469C0.770649 0.549907 0.841727 0.528346 0.914932 0.513785Q1.02473 0.491943 1.13669 0.491943L13.6717 0.491943Q13.7275 0.491943 13.7831 0.497417C13.8202 0.501066 13.8569 0.506522 13.8934 0.513785C13.93 0.521047 13.966 0.530082 14.0017 0.540889Q14.0551 0.557099 14.1067 0.578469C14.1411 0.592715 14.1747 0.608612 14.2076 0.62616C14.2404 0.643712 14.2723 0.662829 14.3032 0.683512C14.3342 0.704195 14.364 0.726344 14.3928 0.749961Q14.436 0.785387 14.4754 0.824872C14.5018 0.851196 14.5268 0.878746 14.5504 0.907522C14.574 0.936303 14.5961 0.966169 14.6168 0.997121C14.6375 1.02807 14.6566 1.05997 14.6742 1.0928C14.6917 1.12563 14.7076 1.15924 14.7219 1.19364C14.7361 1.22803 14.7486 1.26304 14.7595 1.29867C14.7703 1.33429 14.7793 1.37036 14.7865 1.40687C14.7938 1.44339 14.7993 1.48017 14.8029 1.51722Q14.8084 1.57279 14.8084 1.62863L14.8084 11.0218C12.2154 12.906 10.5296 15.9627 10.5296 19.4132C10.5296 22.8636 12.2154 25.9203 14.8084 27.8045L14.8084 37.199Q14.8084 37.2548 14.8029 37.3104C14.7993 37.3474 14.7938 37.3842 14.7865 37.4207C14.7793 37.4572 14.7703 37.4933 14.7595 37.5289C14.7487 37.5645 14.7361 37.5995 14.7219 37.6339C14.7076 37.6684 14.6917 37.702 14.6742 37.7348C14.6566 37.7676 14.6375 37.7995 14.6168 37.8305C14.5961 37.8614 14.574 37.8913 14.5504 37.9201C14.5268 37.9488 14.5018 37.9764 14.4754 38.0027C14.4491 38.0291 14.4216 38.054 14.3928 38.0776C14.364 38.1012 14.3342 38.1234 14.3032 38.1441C14.2723 38.1648 14.2404 38.1839 14.2076 38.2014C14.1747 38.219 14.1411 38.2349 14.1067 38.2491C14.0723 38.2634 14.0373 38.2759 14.0017 38.2867C13.966 38.2975 13.93 38.3066 13.8934 38.3138C13.8569 38.3211 13.8202 38.3265 13.7831 38.3302C13.7461 38.3338 13.7089 38.3357 13.6717 38.3357L10.9594 38.3357L1.8436 2.39329L0 2.39329ZM20.4584 17.934C22.7622 17.934 24.6293 16.0669 24.6293 13.7631C24.6293 11.4594 22.7622 9.59229 20.4584 9.59229C18.1546 9.59229 16.2875 11.4594 16.2875 13.7631C16.2875 16.0669 18.1546 17.934 20.4584 17.934ZM56.6551 21.9396C57.2115 22.4324 57.9506 22.6787 58.8726 22.6787C59.7787 22.6787 60.5099 22.4324 61.0662 21.9396C61.6226 21.4468 61.9007 20.8269 61.9007 20.0798C61.9007 19.3168 61.6226 18.6849 61.0662 18.1842Q60.2317 17.4331 58.8726 17.4331C57.9506 17.4331 57.2115 17.6835 56.6551 18.1842C56.0988 18.6849 55.8206 19.3168 55.8206 20.0798C55.8206 20.8269 56.0988 21.4468 56.6551 21.9396ZM134.124 21.9396C134.68 22.4324 135.419 22.6787 136.341 22.6787C137.247 22.6787 137.978 22.4324 138.535 21.9396C139.091 21.4468 139.369 20.8269 139.369 20.0798C139.369 19.3168 139.091 18.6849 138.535 18.1842C137.978 17.6835 137.247 17.4331 136.341 17.4331C135.419 17.4331 134.68 17.6835 134.124 18.1842C133.567 18.6849 133.289 19.3168 133.289 20.0798C133.289 20.8269 133.567 21.4468 134.124 21.9396ZM23.5802 18.9964L22.0226 25.2331L20.9799 20.8015L22.0226 18.9768L18.8945 18.9768L19.9372 20.8015L18.8945 25.2331L17.3369 18.9964C15.0136 19.1071 13.1595 21.0069 13.1595 23.3562L13.1595 24.7118C13.1595 25.5752 13.8601 26.2758 14.7236 26.2758L26.1935 26.2758C27.057 26.2758 27.7575 25.5752 27.7575 24.7118L27.7575 23.3562C27.7575 21.0069 25.9035 19.1071 23.5802 18.9964ZM53.8177 37.1996L53.8177 20.3182L48.5244 20.3182L48.5244 26.3984L43.4934 26.3984L43.4934 20.3182L38.2001 20.3182L38.2001 37.1996L43.4934 37.1996L43.4934 30.6187L48.5244 30.6187L48.5244 37.1996L53.8177 37.1996ZM102.769 29.0093C103.262 28.143 103.508 27.1773 103.508 26.1123C103.508 24.3478 102.956 22.9411 101.851 21.8919C100.746 20.8428 99.1608 20.3182 97.0943 20.3182L89.7028 20.3182L89.7028 37.1996L94.9961 37.1996L94.9961 31.8348L97.0943 31.8348C98.4614 31.8348 99.6257 31.5804 100.587 31.0718C101.549 30.5631 102.276 29.8756 102.769 29.0093ZM87.9622 31.4056C88.0099 31.0718 88.0337 30.7221 88.0337 30.3565Q88.0337 28.2821 87.1632 26.7561C86.583 25.7387 85.7723 24.9559 84.7311 24.4074C83.69 23.859 82.5017 23.5848 81.1665 23.5848C79.8313 23.5848 78.643 23.863 77.6019 24.4194C76.5607 24.9757 75.75 25.7745 75.1698 26.8157Q74.2995 28.3774 74.2995 30.4757Q74.2995 32.5739 75.1698 34.1357C75.75 35.1769 76.5607 35.9756 77.6019 36.532C78.643 37.0883 79.8313 37.3665 81.1665 37.3665C82.2792 37.3665 83.3005 37.148 84.2304 36.7108C85.1603 36.2737 85.9313 35.6776 86.5433 34.9225Q87.4613 33.79 87.7474 32.3593L82.1441 32.3593C81.8898 32.8839 81.4765 33.1462 80.9042 33.1462C80.0141 33.1462 79.5292 32.566 79.4498 31.4056L87.9622 31.4056ZM118.125 31.4056Q118.196 30.9049 118.196 30.3565C118.196 28.9735 117.906 27.7734 117.326 26.7561C116.746 25.7387 115.935 24.9559 114.894 24.4074C113.853 23.859 112.664 23.5848 111.329 23.5848C109.994 23.5848 108.806 23.863 107.764 24.4194C106.723 24.9757 105.913 25.7745 105.332 26.8157Q104.462 28.3774 104.462 30.4757Q104.462 32.5739 105.332 34.1357C105.913 35.1769 106.723 35.9756 107.764 36.532C108.806 37.0883 109.994 37.3665 111.329 37.3665C112.442 37.3665 113.463 37.148 114.393 36.7108C115.323 36.2737 116.094 35.6776 116.706 34.9225C117.318 34.1675 117.719 33.3131 117.91 32.3593L112.307 32.3593C112.052 32.8839 111.639 33.1462 111.067 33.1462C110.177 33.1462 109.692 32.566 109.612 31.4056L118.125 31.4056ZM122.476 36.7466C123.454 37.1599 124.578 37.3665 125.85 37.3665C127.01 37.3665 128.024 37.1837 128.89 36.8181C129.756 36.4525 130.42 35.9518 130.881 35.316C131.342 34.6801 131.572 33.9648 131.572 33.17C131.572 32.1527 131.326 31.3539 130.833 30.7737C130.34 30.1935 129.76 29.7842 129.093 29.5458C128.425 29.3073 127.606 29.0927 126.637 28.902C125.906 28.7589 125.373 28.6198 125.039 28.4847C124.705 28.3496 124.538 28.1469 124.538 27.8767C124.538 27.6701 124.61 27.5151 124.753 27.4118C124.896 27.3084 125.103 27.2568 125.373 27.2568C125.802 27.2568 126.144 27.3561 126.398 27.5548C126.653 27.7535 126.82 28.0357 126.899 28.4013L131.596 28.4013C131.39 26.9706 130.774 25.8103 129.748 24.9201C128.723 24.0299 127.304 23.5848 125.492 23.5848Q123.656 23.5848 122.369 24.169C121.51 24.5585 120.863 25.091 120.425 25.7665C119.988 26.4421 119.77 27.1932 119.77 28.0198C119.77 28.9735 120.004 29.7206 120.473 30.2611C120.942 30.8015 121.49 31.183 122.118 31.4056C122.746 31.6281 123.545 31.8348 124.515 32.0255Q125.707 32.264 126.208 32.4547C126.541 32.5819 126.708 32.7965 126.708 33.0985C126.708 33.2733 126.629 33.4204 126.47 33.5396C126.311 33.6588 126.096 33.7184 125.826 33.7184C125.397 33.7184 125.043 33.6231 124.765 33.4323C124.487 33.2416 124.316 32.9475 124.252 32.5501L119.174 32.5501C119.253 33.472 119.579 34.2986 120.151 35.0298Q121.01 36.1266 122.476 36.7466ZM71.1521 24.3598C70.3732 24.8287 69.7136 25.4526 69.1731 26.2315L69.1731 23.7517L63.8798 23.7517L63.8798 37.1996L69.1731 37.1996L69.1731 31.6917C69.1731 30.8015 69.4076 30.1816 69.8765 29.8319C70.3454 29.4822 71.0806 29.3073 72.082 29.3073L73.5842 29.3073L73.5842 23.6564C72.7417 23.6564 71.931 23.8908 71.1521 24.3598ZM154.379 25.2062C153.513 24.173 152.309 23.6564 150.767 23.6564C149.813 23.6564 148.99 23.8551 148.299 24.2525C147.607 24.6499 147.055 25.1665 146.642 25.8023L146.642 23.7517L141.348 23.7517L141.348 37.1996L146.642 37.1996L146.642 30.0703C146.642 29.4345 146.809 28.9298 147.142 28.5563C147.476 28.1827 147.937 27.9959 148.525 27.9959C149.098 27.9959 149.555 28.1827 149.896 28.5563C150.238 28.9298 150.409 29.4345 150.409 30.0703L150.409 37.1996L155.678 37.1996L155.678 29.4027C155.678 27.6383 155.245 26.2394 154.379 25.2062ZM61.4954 37.1996L61.4954 23.7517L56.2021 23.7517L56.2021 37.1996L61.4954 37.1996ZM133.671 37.1996L138.964 37.1996L138.964 23.7517L133.671 23.7517L133.671 37.1996ZM97.7794 27.2271C97.5061 27.5172 97.0791 27.6622 96.4982 27.6622L94.9961 27.6622L94.9961 24.5625L96.4982 24.5625C97.5951 24.5625 98.1435 25.0791 98.1435 26.1123C98.1435 26.5981 98.0221 26.9697 97.7794 27.2271ZM82.2395 28.0793C82.5256 28.3097 82.6687 28.6475 82.6687 29.0926L79.5213 29.0926C79.6803 28.1866 80.2287 27.7335 81.1665 27.7335C81.5957 27.7335 81.9534 27.8488 82.2395 28.0793ZM112.402 28.0793C112.688 28.3097 112.831 28.6475 112.831 29.0926L109.684 29.0926C109.843 28.1866 110.391 27.7335 111.329 27.7335C111.758 27.7335 112.116 27.8488 112.402 28.0793Z" id="Group-Difference-Union" fill="url(#gradient_1)" fill-rule="evenodd" stroke="none" />
    </g>
  </g>
</svg>