<?xml version="1.0" encoding="utf-8"?>
<svg width="171px" height="338px" viewbox="0 0 171 338" version="1.1" xmlns:xlink="http://www.w3.org/1999/xlink" xmlns="http://www.w3.org/2000/svg">
  <defs>
    <linearGradient x1="0.9151162" y1="0.025407637" x2="0.10916639" y2="0.44876218" id="gradient_1">
      <stop offset="0" stop-color="#414B5A" />
      <stop offset="1" stop-color="#0F1019" />
    </linearGradient>
    <linearGradient x1="1.0332147" y1="0" x2="0.048210137" y2="0.98417544" id="gradient_2">
      <stop offset="0" stop-color="#343643" stop-opacity="0" />
      <stop offset="0.3252551" stop-color="#434657" />
      <stop offset="1" stop-color="#343643" stop-opacity="0" />
    </linearGradient>
    <linearGradient x1="0.22592075" y1="0.05104498" x2="1.1386158" y2="0.3649951" id="gradient_3">
      <stop offset="0" stop-color="#343643" stop-opacity="0" />
      <stop offset="0.50039065" stop-color="#3C3E50" />
      <stop offset="1" stop-color="#262831" stop-opacity="0" />
    </linearGradient>
    <linearGradient x1="0.83037525" y1="0.08059841" x2="0.09305068" y2="0.9877014" id="gradient_4">
      <stop offset="0" stop-color="#2A323D" />
      <stop offset="1" stop-color="#404C5B" />
    </linearGradient>
    <linearGradient x1="0.5" y1="0" x2="0.5" y2="1" id="gradient_5">
      <stop offset="0.01040338" stop-color="#01D3B0" />
      <stop offset="0.9659398" stop-color="#404A59" />
    </linearGradient>
    <path d="M72.716 6.65734e-06L72.716 0C73.7216 6.65734e-06 73.7216 6.65734e-06 73.7216 6.65734e-06C85.2487 0.00645097 96.7762 -0.00249724 108.303 0.0193396C112.839 0.027932 117.388 0.0662931 121.919 0.310505C125.258 0.490489 128.634 0.784699 131.887 1.59826C133.916 2.10572 135.913 2.84382 137.671 3.99364C144.014 8.14202 144.751 16.6434 145.121 23.5132C145.179 24.5737 145.224 25.6348 145.257 26.6963C145.302 28.082 145.334 29.468 145.354 30.8543C145.386 32.9455 145.393 35.0371 145.412 37.1285L145.432 242.193C145.432 244.081 145.432 244.081 145.432 244.081C145.425 255.314 145.434 266.547 145.412 277.78C145.404 282.316 145.366 286.865 145.121 291.395C144.941 294.735 144.647 298.11 143.834 301.364C143.326 303.393 142.588 305.39 141.438 307.147C137.29 313.491 128.788 314.228 121.919 314.598C120.858 314.655 119.797 314.701 118.736 314.734C117.35 314.778 115.964 314.81 114.577 314.831C112.486 314.862 110.395 314.87 108.303 314.889L72.716 314.909C70.5124 314.909 70.5124 314.909 70.5124 314.909C59.3843 314.902 48.2562 314.911 37.1285 314.889C32.5928 314.88 28.0441 314.842 23.5132 314.598C20.1739 314.418 16.7983 314.124 13.5451 313.31C11.5159 312.803 9.5192 312.065 7.76102 310.915C1.41765 306.767 0.680765 298.265 0.310498 291.395C0.25334 290.335 0.208064 289.274 0.174357 288.212C0.13036 286.827 0.098002 285.441 0.0774027 284.054C0.0463292 281.963 0.0386954 279.871 0.0193388 277.78L0 72.716C5.91764e-06 71.5327 5.91764e-06 71.5327 5.91764e-06 71.5327C0.00645023 60.0645 -0.00247949 48.5968 0.0193388 37.1285C0.0279668 32.5928 0.0662894 28.0441 0.310498 23.5132C0.490483 20.1739 0.784691 16.7983 1.59826 13.5451C2.10571 11.5159 2.84381 9.5192 3.99361 7.76103C8.14202 1.41767 16.6434 0.680776 23.5132 0.310505C24.5737 0.253347 25.6348 0.208063 26.6963 0.174358C28.082 0.130359 29.468 0.098002 30.8543 0.0774035C32.9455 0.0463277 35.0371 0.038694 37.1285 0.0193396L72.716 6.65734e-06L72.716 6.65734e-06Z" id="path_1" />
    <clipPath id="mask_1">
      <use xlink:href="#path_1" />
    </clipPath>
  </defs>
  <g id="svg" transform="translate(3 3)">
    <g id="Black">
      <g id="Buttons" transform="translate(0 65.541176)">
        <g id="Rectangle" transform="translate(160.55675 0)">
          <path d="M3.87817 1.55127L3.87817 58.9484C3.87817 59.8051 3.18366 60.4997 2.3269 60.4997L0 60.4997L0 0L2.3269 0C3.18366 0 3.87817 0.69453 3.87817 1.55127L3.87817 1.55127Z" id="path_1" fill="#43475A" fill-rule="evenodd" stroke="none" />
        </g>
        <g id="Rectangle-Copy">
          <path d="M0 1.55127L0 26.7595C0 27.6162 0.69453 28.3107 1.55127 28.3107L3.87818 28.3107L3.87818 0L1.55127 0C0.69453 0 0 0.69453 0 1.55127L0 1.55127Z" id="path_2" fill="#494C5F" fill-rule="evenodd" stroke="none" />
        </g>
        <g id="Rectangle-Copy-2" transform="translate(0 32.189148)">
          <path d="M0 1.55127L0 26.7595C0 27.6162 0.69453 28.3107 1.55127 28.3107L3.87818 28.3107L3.87818 0L1.55127 0C0.69453 0 0 0.69453 0 1.55127L0 1.55127Z" id="path_3" fill="#494C5F" fill-rule="evenodd" stroke="none" />
        </g>
      </g>
      <g id="Body" transform="translate(1.551307 0)">
        <path d="M80.6662 7.05205e-06L80.6662 0C81.0083 7.05205e-06 81.0083 7.05205e-06 81.0083 7.05205e-06C91.6981 0.00913009 102.388 -0.00224503 113.077 0.0273761C119.712 0.0457611 126.387 0.0973584 133.002 0.687679C137.47 1.08641 142.015 1.75262 146.214 3.40046C148.182 4.17262 150.062 5.18223 151.729 6.48813C159.211 12.3506 160.364 22.8556 160.893 31.6633C161.073 34.6554 161.171 37.8098 161.223 40.7935C161.266 43.2805 161.278 45.768 161.305 48.2555L161.332 251.306C161.332 252.071 161.332 252.071 161.332 252.071C161.323 262.62 161.335 273.168 161.305 283.717C161.287 290.352 161.235 297.027 160.645 303.642C160.246 308.11 159.58 312.655 157.932 316.854C157.16 318.822 156.15 320.703 154.844 322.369C148.982 329.851 138.477 331.004 129.669 331.533C126.677 331.713 123.522 331.811 120.539 331.863C118.052 331.906 115.564 331.918 113.077 331.945L80.6662 331.973C79.7351 331.973 79.7351 331.973 79.7351 331.973C69.2419 331.964 58.7487 331.975 48.2555 331.945C41.6207 331.926 34.9454 331.875 28.3307 331.285C23.8629 330.886 19.3174 330.22 15.1186 328.572C13.151 327.8 11.27 326.79 9.60332 325.484C2.12126 319.622 0.968297 309.117 0.439269 300.309C0.259586 297.318 0.161534 294.162 0.109544 291.179C0.0661888 288.692 0.0547618 286.205 0.027372 283.717L0 80.6662C2.95882e-06 80.2451 2.95882e-06 80.2451 2.95882e-06 80.2451C0.009125 69.582 -0.00223391 58.9185 0.027372 48.2555C0.0457936 41.6207 0.0973422 34.9455 0.687668 28.3308C1.08641 23.8629 1.75262 19.3174 3.40046 15.1186C4.17262 13.151 5.18223 11.27 6.48817 9.60332C12.3506 2.12128 22.8555 0.968316 31.6633 0.439281C34.6548 0.259589 37.8106 0.161544 40.7935 0.109548C43.2805 0.0661929 45.768 0.054767 48.2555 0.0273761L80.6662 7.05205e-06L80.6662 7.05205e-06Z" id="path_4" fill="#2F3239" fill-rule="evenodd" stroke="none" />
        <path d="M80.6662 7.05205e-06L80.6662 0C81.0083 7.05205e-06 81.0083 7.05205e-06 81.0083 7.05205e-06C91.6981 0.00913009 102.388 -0.00224503 113.077 0.0273761C119.712 0.0457611 126.387 0.0973584 133.002 0.687679C137.47 1.08641 142.015 1.75262 146.214 3.40046C148.182 4.17262 150.062 5.18223 151.729 6.48813C159.211 12.3506 160.364 22.8556 160.893 31.6633C161.073 34.6554 161.171 37.8098 161.223 40.7935C161.266 43.2805 161.278 45.768 161.305 48.2555L161.332 251.306C161.332 252.071 161.332 252.071 161.332 252.071C161.323 262.62 161.335 273.168 161.305 283.717C161.287 290.352 161.235 297.027 160.645 303.642C160.246 308.11 159.58 312.655 157.932 316.854C157.16 318.822 156.15 320.703 154.844 322.369C148.982 329.851 138.477 331.004 129.669 331.533C126.677 331.713 123.522 331.811 120.539 331.863C118.052 331.906 115.564 331.918 113.077 331.945L80.6662 331.973C79.7351 331.973 79.7351 331.973 79.7351 331.973C69.2419 331.964 58.7487 331.975 48.2555 331.945C41.6207 331.926 34.9454 331.875 28.3307 331.285C23.8629 330.886 19.3174 330.22 15.1186 328.572C13.151 327.8 11.27 326.79 9.60332 325.484C2.12126 319.622 0.968297 309.117 0.439269 300.309C0.259586 297.318 0.161534 294.162 0.109544 291.179C0.0661888 288.692 0.0547618 286.205 0.027372 283.717L0 80.6662C2.95882e-06 80.2451 2.95882e-06 80.2451 2.95882e-06 80.2451C0.009125 69.582 -0.00223391 58.9185 0.027372 48.2555C0.0457936 41.6207 0.0973422 34.9455 0.687668 28.3308C1.08641 23.8629 1.75262 19.3174 3.40046 15.1186C4.17262 13.151 5.18223 11.27 6.48817 9.60332C12.3506 2.12128 22.8555 0.968316 31.6633 0.439281C34.6548 0.259589 37.8106 0.161544 40.7935 0.109548C43.2805 0.0661929 45.768 0.054767 48.2555 0.0273761L80.6662 7.05205e-06L80.6662 7.05205e-06Z" id="path_4" fill="url(#gradient_1)" fill-rule="evenodd" stroke="none" />
        <path d="M80.6662 7.05205e-06L80.6662 0C81.0083 7.05205e-06 81.0083 7.05205e-06 81.0083 7.05205e-06C91.6981 0.00913009 102.388 -0.00224503 113.077 0.0273761C119.712 0.0457611 126.387 0.0973584 133.002 0.687679C137.47 1.08641 142.015 1.75262 146.214 3.40046C148.182 4.17262 150.062 5.18223 151.729 6.48813C159.211 12.3506 160.364 22.8556 160.893 31.6633C161.073 34.6554 161.171 37.8098 161.223 40.7935C161.266 43.2805 161.278 45.768 161.305 48.2555L161.332 251.306C161.332 252.071 161.332 252.071 161.332 252.071C161.323 262.62 161.335 273.168 161.305 283.717C161.287 290.352 161.235 297.027 160.645 303.642C160.246 308.11 159.58 312.655 157.932 316.854C157.16 318.822 156.15 320.703 154.844 322.369C148.982 329.851 138.477 331.004 129.669 331.533C126.677 331.713 123.522 331.811 120.539 331.863C118.052 331.906 115.564 331.918 113.077 331.945L80.6662 331.973C79.7351 331.973 79.7351 331.973 79.7351 331.973C69.2419 331.964 58.7487 331.975 48.2555 331.945C41.6207 331.926 34.9454 331.875 28.3307 331.285C23.8629 330.886 19.3174 330.22 15.1186 328.572C13.151 327.8 11.27 326.79 9.60332 325.484C2.12126 319.622 0.968297 309.117 0.439269 300.309C0.259586 297.318 0.161534 294.162 0.109544 291.179C0.0661888 288.692 0.0547618 286.205 0.027372 283.717L0 80.6662C2.95882e-06 80.2451 2.95882e-06 80.2451 2.95882e-06 80.2451C0.009125 69.582 -0.00223391 58.9185 0.027372 48.2555C0.0457936 41.6207 0.0973422 34.9455 0.687668 28.3308C1.08641 23.8629 1.75262 19.3174 3.40046 15.1186C4.17262 13.151 5.18223 11.27 6.48817 9.60332C12.3506 2.12128 22.8555 0.968316 31.6633 0.439281C34.6548 0.259589 37.8106 0.161544 40.7935 0.109548C43.2805 0.0661929 45.768 0.054767 48.2555 0.0273761L80.6662 7.05205e-06L80.6662 7.05205e-06Z" id="path_4" fill="url(#gradient_2)" fill-rule="evenodd" stroke="none" />
        <path d="M80.6662 7.05205e-06L80.6662 0C81.0083 7.05205e-06 81.0083 7.05205e-06 81.0083 7.05205e-06C91.6981 0.00913009 102.388 -0.00224503 113.077 0.0273761C119.712 0.0457611 126.387 0.0973584 133.002 0.687679C137.47 1.08641 142.015 1.75262 146.214 3.40046C148.182 4.17262 150.062 5.18223 151.729 6.48813C159.211 12.3506 160.364 22.8556 160.893 31.6633C161.073 34.6554 161.171 37.8098 161.223 40.7935C161.266 43.2805 161.278 45.768 161.305 48.2555L161.332 251.306C161.332 252.071 161.332 252.071 161.332 252.071C161.323 262.62 161.335 273.168 161.305 283.717C161.287 290.352 161.235 297.027 160.645 303.642C160.246 308.11 159.58 312.655 157.932 316.854C157.16 318.822 156.15 320.703 154.844 322.369C148.982 329.851 138.477 331.004 129.669 331.533C126.677 331.713 123.522 331.811 120.539 331.863C118.052 331.906 115.564 331.918 113.077 331.945L80.6662 331.973C79.7351 331.973 79.7351 331.973 79.7351 331.973C69.2419 331.964 58.7487 331.975 48.2555 331.945C41.6207 331.926 34.9454 331.875 28.3307 331.285C23.8629 330.886 19.3174 330.22 15.1186 328.572C13.151 327.8 11.27 326.79 9.60332 325.484C2.12126 319.622 0.968297 309.117 0.439269 300.309C0.259586 297.318 0.161534 294.162 0.109544 291.179C0.0661888 288.692 0.0547618 286.205 0.027372 283.717L0 80.6662C2.95882e-06 80.2451 2.95882e-06 80.2451 2.95882e-06 80.2451C0.009125 69.582 -0.00223391 58.9185 0.027372 48.2555C0.0457936 41.6207 0.0973422 34.9455 0.687668 28.3308C1.08641 23.8629 1.75262 19.3174 3.40046 15.1186C4.17262 13.151 5.18223 11.27 6.48817 9.60332C12.3506 2.12128 22.8555 0.968316 31.6633 0.439281C34.6548 0.259589 37.8106 0.161544 40.7935 0.109548C43.2805 0.0661929 45.768 0.054767 48.2555 0.0273761L80.6662 7.05205e-06L80.6662 7.05205e-06Z" id="path_4" fill="url(#gradient_3)" fill-rule="evenodd" stroke="none" />
      </g>
      <g id="Screen" transform="translate(9.307656 7.7561936)">
        <path d="M72.716 6.65734e-06L72.716 0C73.7216 6.65734e-06 73.7216 6.65734e-06 73.7216 6.65734e-06C85.2487 0.00645097 96.7762 -0.00249724 108.303 0.0193396C112.839 0.027932 117.388 0.0662931 121.919 0.310505C125.258 0.490489 128.634 0.784699 131.887 1.59826C133.916 2.10572 135.913 2.84382 137.671 3.99364C144.014 8.14202 144.751 16.6434 145.121 23.5132C145.179 24.5737 145.224 25.6348 145.257 26.6963C145.302 28.082 145.334 29.468 145.354 30.8543C145.386 32.9455 145.393 35.0371 145.412 37.1285L145.432 242.193C145.432 244.081 145.432 244.081 145.432 244.081C145.425 255.314 145.434 266.547 145.412 277.78C145.404 282.316 145.366 286.865 145.121 291.395C144.941 294.735 144.647 298.11 143.834 301.364C143.326 303.393 142.588 305.39 141.438 307.147C137.29 313.491 128.788 314.228 121.919 314.598C120.858 314.655 119.797 314.701 118.736 314.734C117.35 314.778 115.964 314.81 114.577 314.831C112.486 314.862 110.395 314.87 108.303 314.889L72.716 314.909C70.5124 314.909 70.5124 314.909 70.5124 314.909C59.3843 314.902 48.2562 314.911 37.1285 314.889C32.5928 314.88 28.0441 314.842 23.5132 314.598C20.1739 314.418 16.7983 314.124 13.5451 313.31C11.5159 312.803 9.5192 312.065 7.76102 310.915C1.41765 306.767 0.680765 298.265 0.310498 291.395C0.25334 290.335 0.208064 289.274 0.174357 288.212C0.13036 286.827 0.098002 285.441 0.0774027 284.054C0.0463292 281.963 0.0386954 279.871 0.0193388 277.78L0 72.716C5.91764e-06 71.5327 5.91764e-06 71.5327 5.91764e-06 71.5327C0.00645023 60.0645 -0.00247949 48.5968 0.0193388 37.1285C0.0279668 32.5928 0.0662894 28.0441 0.310498 23.5132C0.490483 20.1739 0.784691 16.7983 1.59826 13.5451C2.10571 11.5159 2.84381 9.5192 3.99361 7.76103C8.14202 1.41767 16.6434 0.680776 23.5132 0.310505C24.5737 0.253347 25.6348 0.208063 26.6963 0.174358C28.082 0.130359 29.468 0.098002 30.8543 0.0774035C32.9455 0.0463277 35.0371 0.038694 37.1285 0.0193396L72.716 6.65734e-06L72.716 6.65734e-06Z" id="Mask" fill="#343643" fill-rule="evenodd" stroke="none" />
        <g id="Mask-group">
          <path d="M72.716 6.65734e-06L72.716 0C73.7216 6.65734e-06 73.7216 6.65734e-06 73.7216 6.65734e-06C85.2487 0.00645097 96.7762 -0.00249724 108.303 0.0193396C112.839 0.027932 117.388 0.0662931 121.919 0.310505C125.258 0.490489 128.634 0.784699 131.887 1.59826C133.916 2.10572 135.913 2.84382 137.671 3.99364C144.014 8.14202 144.751 16.6434 145.121 23.5132C145.179 24.5737 145.224 25.6348 145.257 26.6963C145.302 28.082 145.334 29.468 145.354 30.8543C145.386 32.9455 145.393 35.0371 145.412 37.1285L145.432 242.193C145.432 244.081 145.432 244.081 145.432 244.081C145.425 255.314 145.434 266.547 145.412 277.78C145.404 282.316 145.366 286.865 145.121 291.395C144.941 294.735 144.647 298.11 143.834 301.364C143.326 303.393 142.588 305.39 141.438 307.147C137.29 313.491 128.788 314.228 121.919 314.598C120.858 314.655 119.797 314.701 118.736 314.734C117.35 314.778 115.964 314.81 114.577 314.831C112.486 314.862 110.395 314.87 108.303 314.889L72.716 314.909C70.5124 314.909 70.5124 314.909 70.5124 314.909C59.3843 314.902 48.2562 314.911 37.1285 314.889C32.5928 314.88 28.0441 314.842 23.5132 314.598C20.1739 314.418 16.7983 314.124 13.5451 313.31C11.5159 312.803 9.5192 312.065 7.76102 310.915C1.41765 306.767 0.680765 298.265 0.310498 291.395C0.25334 290.335 0.208064 289.274 0.174357 288.212C0.13036 286.827 0.098002 285.441 0.0774027 284.054C0.0463292 281.963 0.0386954 279.871 0.0193388 277.78L0 72.716C5.91764e-06 71.5327 5.91764e-06 71.5327 5.91764e-06 71.5327C0.00645023 60.0645 -0.00247949 48.5968 0.0193388 37.1285C0.0279668 32.5928 0.0662894 28.0441 0.310498 23.5132C0.490483 20.1739 0.784691 16.7983 1.59826 13.5451C2.10571 11.5159 2.84381 9.5192 3.99361 7.76103C8.14202 1.41767 16.6434 0.680776 23.5132 0.310505C24.5737 0.253347 25.6348 0.208063 26.6963 0.174358C28.082 0.130359 29.468 0.098002 30.8543 0.0774035C32.9455 0.0463277 35.0371 0.038694 37.1285 0.0193396L72.716 6.65734e-06L72.716 6.65734e-06Z" id="path_5" fill="none" fill-rule="evenodd" stroke="none" />
          <g clip-path="url(#mask_1)">
            <g id="Group">
              <g id="Screen#1">
                <path d="M0 0L145.432 0L145.432 314.909L0 314.909L0 0L0 0Z" id="Rectangle-2-Copy" fill="url(#gradient_4)" fill-rule="evenodd" stroke="none" />
                <path d="M27.1473 54.2946C42.1404 54.2946 54.2946 42.1403 54.2946 27.1473C54.2946 12.1543 42.1404 0 27.1473 0C12.1543 0 0 12.1543 0 27.1473C0 42.1403 12.1543 54.2946 27.1473 54.2946L27.1473 54.2946Z" transform="translate(45.76258 130.30693)" id="Oval" fill="none" fill-rule="evenodd" stroke="#3F4A59" stroke-width="2" />
                <path d="M0 4.9912L0 0.104679L2.88304 0.104679L2.88304 0.523531L0.453747 0.523531L0.453747 2.26872L2.68758 2.26872L2.68758 2.6736L0.453747 2.6736L0.453747 4.57236L2.88304 4.57236L2.88304 4.9912L0 4.9912L0 4.9912ZM7.49614 4.57273L8.42458 4.57273C9.58338 4.57273 10.1628 3.89559 10.1628 2.54133C10.1628 1.90375 10.0127 1.40812 9.71253 1.05442C9.41235 0.700737 8.997 0.523894 8.46646 0.523894L7.49614 0.523894L7.49614 4.57273L7.49614 4.57273ZM7.04235 4.9912L7.04235 0.104679L8.53623 0.104679C8.81546 0.104679 9.0784 0.153547 9.32505 0.251283C9.5717 0.349007 9.79509 0.49328 9.9952 0.684088C10.1953 0.874897 10.3547 1.12969 10.4734 1.44847C10.5921 1.76727 10.6514 2.13143 10.6514 2.54096C10.6514 2.98773 10.5909 3.37632 10.4699 3.70675C10.3489 4.03717 10.1837 4.29196 9.97426 4.47113C9.76484 4.65031 9.53796 4.78178 9.29364 4.86555C9.04931 4.94932 8.78288 4.9912 8.49435 4.9912L7.04235 4.9912L7.04235 4.9912ZM14.7061 4.9912L14.7061 0.104679L15.1598 0.104679L15.1598 4.9912L14.7061 4.9912L14.7061 4.9912ZM20.5757 4.9912L20.5757 0.523531L19.04 0.523531L19.04 0.104679L22.5652 0.104679L22.5652 0.523531L21.0295 0.523531L21.0295 4.9912L20.5757 4.9912L20.5757 4.9912ZM31.931 4.9912L31.931 0.523531L30.3953 0.523531L30.3953 0.104679L33.9205 0.104679L33.9205 0.523531L32.3848 0.523531L32.3848 4.9912L31.931 4.9912L31.931 4.9912ZM37.7657 4.9912L37.7657 0.104679L38.2195 0.104679L38.2195 2.24777L40.572 2.24777L40.572 0.104679L41.0257 0.104679L41.0257 4.9912L40.572 4.9912L40.572 2.66662L38.2195 2.66662L38.2195 4.9912L37.7657 4.9912L37.7657 4.9912ZM45.3946 4.9912L45.3946 0.104679L45.8483 0.104679L45.8483 4.9912L45.3946 4.9912L45.3946 4.9912ZM49.9029 3.28793L50.3776 3.20416C50.4521 3.71143 50.5975 4.08024 50.8139 4.3106C51.0303 4.54097 51.3875 4.65616 51.8855 4.65616C52.2857 4.65616 52.5835 4.56425 52.779 4.38042C52.9745 4.1966 53.0722 3.9767 53.0722 3.72073C53.0722 3.47874 52.9849 3.28328 52.8104 3.13435C52.6359 2.98543 52.2624 2.81789 51.69 2.63174C51.1362 2.45489 50.7395 2.26641 50.4998 2.0663C50.2601 1.86619 50.1403 1.59393 50.1403 1.24955C50.1403 0.900512 50.2764 0.604997 50.5487 0.363C50.8209 0.121004 51.1851 0 51.6411 0C52.0972 0 52.4742 0.115181 52.772 0.345543C53.0699 0.575906 53.2467 0.912146 53.3026 1.35427L52.8279 1.43804C52.772 1.11692 52.6545 0.870261 52.4753 0.69807C52.2962 0.525878 52.0181 0.439788 51.6411 0.439788C51.3107 0.439788 51.0559 0.517735 50.8768 0.673641C50.6976 0.829548 50.608 1.02152 50.608 1.24955C50.608 1.45432 50.6836 1.61953 50.8349 1.74519C50.9861 1.87084 51.313 2.01743 51.8157 2.18497C52.4998 2.413 52.957 2.63057 53.1874 2.83767C53.4177 3.04477 53.5329 3.33446 53.5329 3.70678C53.5329 4.0977 53.3875 4.42696 53.0966 4.69455C52.8058 4.96215 52.3951 5.09595 51.8645 5.09595C50.7011 5.09595 50.0472 4.49327 49.9029 3.28793L49.9029 3.28793ZM61.8516 3.28793L62.3263 3.20416C62.4007 3.71143 62.5462 4.08024 62.7626 4.3106C62.979 4.54097 63.3361 4.65616 63.8341 4.65616C64.2343 4.65616 64.5322 4.56425 64.7276 4.38042C64.9231 4.1966 65.0208 3.9767 65.0208 3.72073C65.0208 3.47874 64.9336 3.28328 64.759 3.13435C64.5845 2.98543 64.2111 2.81789 63.6387 2.63174C63.0848 2.45489 62.6881 2.26641 62.4484 2.0663C62.2088 1.86619 62.0889 1.59393 62.0889 1.24955C62.0889 0.900512 62.225 0.604997 62.4973 0.363C62.7695 0.121004 63.1337 0 63.5898 0C64.0459 0 64.4228 0.115181 64.7207 0.345543C65.0185 0.575906 65.1954 0.912146 65.2512 1.35427L64.7765 1.43804C64.7207 1.11692 64.6032 0.870261 64.424 0.69807C64.2448 0.525878 63.9668 0.439788 63.5898 0.439788C63.2594 0.439788 63.0046 0.517735 62.8254 0.673641C62.6462 0.829548 62.5566 1.02152 62.5566 1.24955C62.5566 1.45432 62.6322 1.61953 62.7835 1.74519C62.9348 1.87084 63.2617 2.01743 63.7643 2.18497C64.4484 2.413 64.9056 2.63057 65.136 2.83767C65.3664 3.04477 65.4816 3.33446 65.4816 3.70678C65.4816 4.0977 65.3361 4.42696 65.0453 4.69455C64.7544 4.96215 64.3437 5.09595 63.8132 5.09595C62.6497 5.09595 61.9958 4.49327 61.8516 3.28793L61.8516 3.28793ZM70.2762 4.9912L70.2762 2.93188L68.6636 0.104679L69.1732 0.104679L70.4856 2.49908L70.5065 2.49908L71.8119 0.104679L72.3215 0.104679L70.709 2.93188L70.709 4.9912L70.2762 4.9912L70.2762 4.9912ZM76.097 4.9912L76.097 0.104679L76.802 0.104679L78.3797 4.02786L78.3936 4.02786L79.9782 0.104679L80.6763 0.104679L80.6763 4.9912L80.2226 4.9912L80.2226 0.66314L80.2086 0.66314L78.4355 4.9912L78.3378 4.9912L76.5647 0.66314L76.5507 0.66314L76.5507 4.9912L76.097 4.9912L76.097 4.9912ZM85.0102 4.9912L85.0102 0.104679L86.8182 0.104679C87.265 0.104679 87.614 0.219861 87.8653 0.450235C88.1166 0.680597 88.2423 0.981935 88.2423 1.35424C88.2423 1.60555 88.1806 1.81845 88.0573 1.99298C87.934 2.16749 87.7746 2.29198 87.5791 2.36644L87.5791 2.38739C87.8118 2.44789 88.0107 2.58052 88.176 2.78529C88.3412 2.99005 88.4238 3.253 88.4238 3.57411C88.4238 4.03019 88.2807 4.38039 87.9945 4.62471C87.7083 4.86904 87.2882 4.9912 86.7344 4.9912L85.0102 4.9912L85.0102 4.9912ZM85.464 2.19927L86.7205 2.19927C87.4325 2.19927 87.7885 1.91771 87.7885 1.3546C87.7885 1.08934 87.6931 0.884562 87.5023 0.74029C87.3115 0.59603 87.0463 0.523894 86.7065 0.523894L85.464 0.523894L85.464 2.19927L85.464 2.19927ZM85.464 4.57252L86.6786 4.57252C87.5396 4.57252 87.97 4.23977 87.97 3.57427C87.97 3.25315 87.8677 3.01581 87.6629 2.86223C87.4581 2.70866 87.137 2.63187 86.6996 2.63187L85.464 2.63187L85.464 4.57252L85.464 4.57252ZM94.2515 4.65642C94.7076 4.65642 95.0764 4.47609 95.358 4.11541C95.6395 3.75474 95.7803 3.23002 95.7803 2.54125C95.7803 1.86179 95.6349 1.34173 95.344 0.981054C95.0531 0.620385 94.689 0.440051 94.2515 0.440051C93.8001 0.440051 93.4266 0.614574 93.1311 0.963609C92.8356 1.31264 92.6878 1.82689 92.6878 2.50635C92.6878 3.19977 92.8321 3.73147 93.1206 4.10145C93.4092 4.47143 93.7861 4.65642 94.2515 4.65642L94.2515 4.65642ZM94.2515 5.09595C93.9769 5.09595 93.721 5.04708 93.4836 4.94934C93.2463 4.85162 93.0299 4.70386 92.8344 4.50606C92.6389 4.30828 92.4842 4.03836 92.3702 3.69631C92.2562 3.35424 92.1992 2.95751 92.1992 2.50609C92.1992 1.71028 92.3993 1.09365 92.7995 0.656184C93.1997 0.218728 93.6837 0 94.2515 0C94.8053 0 95.28 0.223379 95.6756 0.67015C96.0711 1.11692 96.2689 1.74052 96.2689 2.54099C96.2689 2.99241 96.2131 3.38798 96.1014 3.72772C95.9897 4.06745 95.8373 4.33387 95.6441 4.52701C95.451 4.72014 95.2381 4.86325 95.0054 4.95633C94.7727 5.0494 94.5214 5.09595 94.2515 5.09595L94.2515 5.09595ZM100.324 4.9912L100.324 0.104679L100.777 0.104679L100.777 4.57236L102.934 4.57236L102.934 4.9912L100.324 4.9912L100.324 4.9912Z" transform="translate(20.200695 155.17795)" id="EDIT-THIS-SYMBOL" fill="#949BAF" fill-rule="evenodd" stroke="none" />
                <path d="M0.277264 2.85826L0.844647 2.85826C1.5528 2.85826 1.90687 2.44448 1.90687 1.61687C1.90687 1.22723 1.81516 0.924363 1.63172 0.708204C1.44828 0.492069 1.19445 0.38399 0.870235 0.38399L0.277264 0.38399L0.277264 2.85826L0.277264 2.85826ZM0 3.11469L0 0.128493L0.912926 0.128493C1.08357 0.128493 1.24425 0.158341 1.39498 0.218062C1.54571 0.277806 1.68223 0.365955 1.80452 0.482556C1.92681 0.599156 2.02422 0.754884 2.09674 0.949692C2.16926 1.1445 2.20553 1.36705 2.20553 1.61732C2.20553 1.89033 2.16855 2.12782 2.09461 2.32973C2.02066 2.53166 1.91971 2.68736 1.79172 2.79686C1.66374 2.90636 1.52509 2.9867 1.37578 3.03788C1.22648 3.08908 1.06366 3.11469 0.887326 3.11469L0 3.11469L0 3.11469ZM4.43237 2.4488L4.667 2.57676C4.59304 2.74741 4.47503 2.89033 4.31292 3.00551C4.15082 3.12069 3.95314 3.17828 3.71995 3.17828C3.41564 3.17828 3.16536 3.06949 2.96914 2.85193C2.77289 2.63435 2.67478 2.34498 2.67478 1.9838C2.67478 1.62261 2.77076 1.33324 2.96273 1.11568C3.1547 0.898102 3.40142 0.789313 3.70289 0.789313C4.00721 0.789313 4.25176 0.894552 4.43664 1.10501C4.62151 1.31546 4.71393 1.60838 4.71393 1.9838L4.71393 2.06484L2.95633 2.06484C2.95633 2.29523 3.02103 2.49572 3.15044 2.66636C3.27985 2.837 3.46683 2.92231 3.71142 2.92231C3.80811 2.92231 3.89629 2.90952 3.97591 2.88391C4.05553 2.85832 4.11813 2.83061 4.16361 2.80073C4.20911 2.77086 4.2532 2.72892 4.29586 2.67488C4.33852 2.62086 4.36625 2.58105 4.37905 2.55544L4.43237 2.4488L4.43237 2.4488ZM2.96491 1.83024L4.42815 1.83024C4.42815 1.73923 4.41606 1.65037 4.39189 1.56362C4.36773 1.47687 4.32934 1.39298 4.27671 1.31193C4.22408 1.23088 4.14804 1.16617 4.04848 1.11783C3.94893 1.06947 3.83375 1.04531 3.70294 1.04531C3.57211 1.04531 3.45622 1.07231 3.35525 1.12635C3.2543 1.18039 3.1768 1.24937 3.12276 1.33326C3.06872 1.41715 3.02891 1.50177 3.00331 1.58708C2.97772 1.67241 2.96491 1.75346 2.96491 1.83024L2.96491 1.83024ZM5.16184 2.33788L5.43913 2.29523C5.4619 2.50852 5.52658 2.66778 5.63324 2.77302C5.73989 2.87823 5.89416 2.93085 6.0961 2.93085C6.28951 2.93085 6.43312 2.89459 6.52696 2.82206C6.62081 2.74954 6.66774 2.65355 6.66774 2.53411C6.66774 2.40896 6.62439 2.31298 6.53764 2.24616C6.45087 2.17931 6.27101 2.10894 5.99798 2.03499C5.71359 1.95821 5.51592 1.87217 5.40501 1.77689C5.29409 1.68162 5.23863 1.55153 5.23863 1.38657C5.23863 1.22445 5.30689 1.08439 5.44341 0.966368C5.57991 0.848347 5.76618 0.789313 6.00224 0.789313C6.24398 0.789313 6.43595 0.848347 6.57816 0.966368C6.72037 1.08439 6.81278 1.24009 6.85545 1.43348L6.59949 1.50175C6.51417 1.18889 6.3151 1.03248 6.00224 1.03248C5.84014 1.03248 5.71642 1.06803 5.6311 1.13914C5.54578 1.21022 5.50313 1.29271 5.50313 1.38657C5.50313 1.48894 5.54152 1.56502 5.61831 1.6148C5.6951 1.66455 5.86717 1.72785 6.13449 1.80463C6.43881 1.89278 6.64854 1.98806 6.76373 2.09045C6.87891 2.19283 6.9365 2.3393 6.9365 2.52985C6.9365 2.70901 6.86754 2.86188 6.7296 2.98844C6.59165 3.11501 6.38049 3.17828 6.0961 3.17828C5.80319 3.17828 5.57922 3.10078 5.42421 2.94579C5.26919 2.79077 5.18174 2.58815 5.16184 2.33788L5.16184 2.33788ZM7.56792 3.11429L7.56792 0.853311L7.95574 0.853311L7.95574 3.11429L7.56792 3.11429L7.56792 3.11429ZM7.53378 0.51631L7.53378 0.128493L7.9216 0.128493L7.9216 0.51631L7.53378 0.51631L7.53378 0.51631ZM8.66849 3.50675L8.92445 3.40438C9.02401 3.72291 9.22734 3.88217 9.53449 3.88217C9.7279 3.88217 9.87647 3.82387 9.98029 3.70727C10.0841 3.59064 10.136 3.43281 10.136 3.23374L10.136 2.92659L10.1275 2.92659C9.96535 3.09439 9.74923 3.17828 9.47903 3.17828C9.18041 3.17828 8.94221 3.0702 8.76447 2.85406C8.58674 2.63791 8.49785 2.34782 8.49785 1.9838C8.49785 1.62545 8.58957 1.33679 8.77301 1.11781C8.95645 0.898812 9.19177 0.789313 9.47903 0.789313C9.75488 0.789313 9.97106 0.883166 10.1275 1.07087L10.136 1.07087L10.136 0.853318L10.4133 0.853318L10.4133 3.15695C10.4133 3.47833 10.3379 3.72218 10.1872 3.88856C10.0364 4.05494 9.82175 4.13812 9.54302 4.13812C9.31549 4.13812 9.12779 4.08053 8.97991 3.96535C8.83204 3.85016 8.72822 3.6973 8.66849 3.50675L8.66849 3.50675ZM10.136 2.42321L10.136 1.62547C10.136 1.48044 10.0799 1.34748 9.96752 1.2266C9.85517 1.10574 9.70659 1.04531 9.52172 1.04531C9.27999 1.04531 9.09512 1.12848 8.96714 1.29486C8.83915 1.46124 8.77517 1.69089 8.77517 1.98382C8.77517 2.2796 8.83846 2.50996 8.96501 2.6749C9.09155 2.83986 9.27712 2.92233 9.52172 2.92233C9.69519 2.92233 9.84097 2.87257 9.95898 2.77304C10.077 2.67348 10.136 2.55688 10.136 2.42321L10.136 2.42321ZM11.1599 3.1143L11.1599 0.853318L11.4371 0.853318L11.4371 1.07087L11.4457 1.07087C11.5054 0.988405 11.5971 0.920849 11.7208 0.868254C11.8445 0.815634 11.9718 0.789313 12.1026 0.789313C12.3472 0.789313 12.5477 0.864679 12.7041 1.01541C12.8606 1.16615 12.9388 1.37092 12.9388 1.62973L12.9388 3.1143L12.6615 3.1143L12.6615 1.73211C12.6615 1.50743 12.6124 1.33679 12.5143 1.22019C12.4162 1.10359 12.2733 1.04529 12.0856 1.04529C11.895 1.04529 11.7393 1.09861 11.6184 1.20525C11.4976 1.31191 11.4371 1.46051 11.4371 1.65106L11.4371 3.1143L11.1599 3.1143L11.1599 3.1143ZM15.2936 2.4488L15.5282 2.57676C15.4543 2.74741 15.3362 2.89033 15.1741 3.00551C15.012 3.12069 14.8144 3.17828 14.5812 3.17828C14.2768 3.17828 14.0266 3.06949 13.8303 2.85193C13.6341 2.63435 13.536 2.34498 13.536 1.9838C13.536 1.62261 13.632 1.33324 13.824 1.11568C14.0159 0.898102 14.2627 0.789313 14.5641 0.789313C14.8684 0.789313 15.113 0.894552 15.2979 1.10501C15.4827 1.31546 15.5752 1.60838 15.5752 1.9838L15.5752 2.06484L13.8176 2.06484C13.8176 2.29523 13.8822 2.49572 14.0117 2.66636C14.1411 2.837 14.328 2.92231 14.5726 2.92231C14.6693 2.92231 14.7575 2.90952 14.8371 2.88391C14.9167 2.85832 14.9793 2.83061 15.0248 2.80073C15.0703 2.77086 15.1144 2.72892 15.1571 2.67488C15.1997 2.62086 15.2275 2.58105 15.2403 2.55544L15.2936 2.4488L15.2936 2.4488ZM13.8261 1.83024L15.2893 1.83024C15.2893 1.73923 15.2772 1.65037 15.2531 1.56362C15.2289 1.47687 15.1905 1.39298 15.1379 1.31193C15.0853 1.23088 15.0092 1.16617 14.9097 1.11783C14.8101 1.06947 14.6949 1.04531 14.5641 1.04531C14.4333 1.04531 14.3174 1.07231 14.2164 1.12635C14.1155 1.18039 14.038 1.24937 13.9839 1.33326C13.9299 1.41715 13.8901 1.50177 13.8645 1.58708C13.8389 1.67241 13.8261 1.75346 13.8261 1.83024L13.8261 1.83024ZM17.6826 2.42321L17.6826 1.62547C17.6826 1.48044 17.6265 1.34748 17.5141 1.2266C17.4018 1.10574 17.2532 1.04531 17.0683 1.04531C16.8266 1.04531 16.6417 1.12848 16.5137 1.29486C16.3858 1.46124 16.3218 1.69089 16.3218 1.98382C16.3218 2.2796 16.3851 2.50996 16.5116 2.6749C16.6381 2.83986 16.8237 2.92233 17.0683 2.92233C17.2418 2.92233 17.3876 2.87257 17.5056 2.77304C17.6236 2.67348 17.6826 2.55688 17.6826 2.42321L17.6826 2.42321ZM17.7167 3.11418L17.7167 2.8966L17.7082 2.8966C17.6371 2.97623 17.5418 3.04308 17.4224 3.09712C17.3029 3.15113 17.1707 3.17816 17.0256 3.17816C16.727 3.17816 16.4888 3.07008 16.3111 2.85395C16.1333 2.63779 16.0444 2.34771 16.0444 1.98368C16.0444 1.62533 16.1361 1.33667 16.3196 1.1177C16.503 0.898697 16.7384 0.789197 17.0256 0.789197C17.3015 0.789197 17.5176 0.883051 17.674 1.07076L17.6826 1.07076L17.6826 0L17.9599 0L17.9599 3.11418L17.7167 3.11418L17.7167 3.11418ZM20.0715 1.62547L20.0715 2.42321C20.0715 2.55688 20.1306 2.67348 20.2486 2.77304C20.3666 2.87257 20.5124 2.92233 20.6858 2.92233C20.9304 2.92233 21.116 2.83986 21.2426 2.6749C21.3691 2.50996 21.4324 2.2796 21.4324 1.98382C21.4324 1.69089 21.3684 1.46124 21.2404 1.29486C21.1124 1.12848 20.9276 1.04531 20.6858 1.04531C20.501 1.04531 20.3524 1.10574 20.2401 1.2266C20.1277 1.34748 20.0715 1.48044 20.0715 1.62547L20.0715 1.62547ZM19.7943 3.11418L19.7943 0L20.0716 0L20.0716 1.07076L20.0801 1.07076C20.2365 0.883051 20.4527 0.789197 20.7285 0.789197C21.0158 0.789197 21.2511 0.898697 21.4346 1.1177C21.618 1.33667 21.7097 1.62533 21.7097 1.98368C21.7097 2.34771 21.6208 2.63779 21.4431 2.85395C21.2654 3.07008 21.0272 3.17816 20.7285 3.17816C20.5835 3.17816 20.4512 3.15113 20.3318 3.09712C20.2124 3.04308 20.1171 2.97623 20.046 2.8966L20.0374 2.8966L20.0374 3.11418L19.7943 3.11418L19.7943 3.11418ZM22.4093 4.07413L22.8701 2.91378L22.051 0.853311L22.3454 0.853311L23.0023 2.58956L23.0108 2.58956L23.6678 0.853311L23.9622 0.853311L22.6824 4.07413L22.4093 4.07413L22.4093 4.07413ZM26.6455 3.17868C26.4777 3.17868 26.3213 3.1488 26.1762 3.08908C26.0312 3.02936 25.8989 2.93906 25.7795 2.8182C25.66 2.69734 25.5655 2.53238 25.4958 2.32334C25.4261 2.11431 25.3913 1.87185 25.3913 1.596C25.3913 1.10966 25.5136 0.732854 25.7582 0.465496C26.0028 0.198162 26.2985 0.0644944 26.6455 0.0644944C26.9469 0.0644944 27.1994 0.160478 27.4027 0.352446C27.606 0.544437 27.7291 0.79113 27.7717 1.0926L27.4859 1.14806C27.4432 0.909175 27.353 0.713657 27.215 0.56148C27.077 0.409326 26.8872 0.333249 26.6455 0.333249C26.3696 0.333249 26.1414 0.439908 25.9608 0.653203C25.7802 0.866497 25.6899 1.18077 25.6899 1.596C25.6899 2.01691 25.7781 2.3397 25.9544 2.56438C26.1307 2.78906 26.3611 2.90138 26.6455 2.90138C27.1403 2.90138 27.4205 2.60703 27.4859 2.01833L27.7803 2.06098C27.749 2.41081 27.6316 2.68453 27.4283 2.88218C27.225 3.07985 26.964 3.17868 26.6455 3.17868L26.6455 3.17868ZM29.717 3.1143L29.717 2.85406L29.7085 2.85406C29.663 2.93937 29.5769 3.01474 29.4504 3.08016C29.3238 3.14557 29.171 3.17828 28.9918 3.17828C28.75 3.17828 28.5659 3.11856 28.4393 2.99909C28.3128 2.87965 28.2495 2.7275 28.2495 2.54266C28.2495 2.35779 28.3064 2.21132 28.4201 2.10324C28.5339 1.99518 28.7287 1.90559 29.0046 1.83448C29.0927 1.81173 29.1524 1.79609 29.1838 1.78757C29.215 1.77902 29.2655 1.76411 29.3352 1.74278C29.4049 1.72143 29.4532 1.70224 29.4802 1.68517C29.5073 1.66813 29.5393 1.64536 29.5762 1.61693C29.6132 1.58848 29.6388 1.55792 29.653 1.5252C29.6672 1.49249 29.6743 1.45625 29.6743 1.41641C29.6743 1.30836 29.6331 1.21948 29.5506 1.14979C29.4681 1.08013 29.3416 1.04529 29.171 1.04529C28.8496 1.04529 28.6576 1.20454 28.595 1.52307L28.3305 1.46335C28.359 1.26142 28.4457 1.09861 28.5908 0.974889C28.7358 0.851187 28.925 0.789313 29.1582 0.789313C29.7014 0.789313 29.973 1.04671 29.973 1.56147L29.973 3.1143L29.717 3.1143L29.717 3.1143ZM29.0771 2.06041C28.8638 2.12013 28.7187 2.18414 28.6419 2.25238C28.5652 2.32064 28.5268 2.41166 28.5268 2.52542C28.5268 2.78989 28.6889 2.92213 29.0131 2.92213C29.2292 2.92213 29.397 2.87167 29.5165 2.77069C29.6359 2.66974 29.6956 2.54532 29.6956 2.39743L29.6956 1.77459L29.6871 1.77459C29.6502 1.86276 29.4468 1.95804 29.0771 2.06041L29.0771 2.06041ZM30.7195 3.50675L30.9754 3.40438C31.075 3.72291 31.2783 3.88217 31.5855 3.88217C31.7789 3.88217 31.9274 3.82387 32.0313 3.70727C32.1351 3.59064 32.187 3.43281 32.187 3.23374L32.187 2.92659L32.1784 2.92659C32.0163 3.09439 31.8002 3.17828 31.53 3.17828C31.2314 3.17828 30.9932 3.0702 30.8154 2.85406C30.6377 2.63791 30.5488 2.34782 30.5488 1.9838C30.5488 1.62545 30.6405 1.33679 30.824 1.11781C31.0074 0.898812 31.2427 0.789313 31.53 0.789313C31.8058 0.789313 32.022 0.883166 32.1784 1.07087L32.187 1.07087L32.187 0.853318L32.4642 0.853318L32.4642 3.15695C32.4642 3.47833 32.3889 3.72218 32.2382 3.88856C32.0874 4.05494 31.8727 4.13812 31.594 4.13812C31.3665 4.13812 31.1787 4.08053 31.0309 3.96535C30.883 3.85016 30.7792 3.6973 30.7195 3.50675L30.7195 3.50675ZM32.187 2.42321L32.187 1.62547C32.187 1.48044 32.1308 1.34748 32.0185 1.2266C31.9061 1.10574 31.7575 1.04531 31.5727 1.04531C31.3309 1.04531 31.1461 1.12848 31.0181 1.29486C30.8901 1.46124 30.8261 1.69089 30.8261 1.98382C30.8261 2.2796 30.8894 2.50996 31.0159 2.6749C31.1425 2.83986 31.3281 2.92233 31.5727 2.92233C31.7461 2.92233 31.8919 2.87257 32.0099 2.77304C32.1279 2.67348 32.187 2.55688 32.187 2.42321L32.187 2.42321ZM33.2109 3.11399L33.2109 0.853008L33.4796 0.853008L33.4796 1.09617L33.4881 1.09617C33.5365 1.00232 33.604 0.931925 33.6908 0.884987C33.7775 0.838072 33.8664 0.814614 33.9574 0.814614C33.9944 0.814614 34.0292 0.818165 34.0619 0.825266C34.0946 0.832391 34.1181 0.838782 34.1323 0.844463L34.1494 0.857269L34.0939 1.13883C34.0626 1.11608 34.0029 1.1047 33.9147 1.1047C33.7896 1.1047 33.6872 1.15019 33.6076 1.2412C33.528 1.33222 33.4881 1.46588 33.4881 1.6422L33.4881 3.11399L33.2109 3.11399L33.2109 3.11399ZM34.7167 3.11429L34.7167 0.853311L35.1045 0.853311L35.1045 3.11429L34.7167 3.11429L34.7167 3.11429ZM34.6826 0.51631L34.6826 0.128493L35.0704 0.128493L35.0704 0.51631L34.6826 0.51631L34.6826 0.51631ZM37.5494 3.11469L37.5494 1.8562L36.5639 0.128493L36.8753 0.128493L37.6774 1.59173L37.6902 1.59173L38.4879 0.128493L38.7993 0.128493L37.8139 1.8562L37.8139 3.11469L37.5494 3.11469L37.5494 3.11469ZM39.2472 2.32933L39.2472 0.853311L39.5245 0.853311L39.5245 2.27815C39.5245 2.51136 39.5699 2.67703 39.661 2.77514C39.7522 2.87325 39.9042 2.9223 40.1175 2.9223C40.2994 2.9223 40.4382 2.864 40.5332 2.7474C40.6286 2.6308 40.6763 2.47296 40.6763 2.27387L40.6763 0.853311L40.9536 0.853311L40.9536 3.11429L40.6763 3.11429L40.6763 2.89671L40.6678 2.89671L40.6465 2.92871C40.6379 2.9415 40.615 2.96356 40.5782 2.99483C40.5414 3.02612 40.5014 3.05455 40.4588 3.08016C40.4161 3.10575 40.3583 3.12849 40.2858 3.1484C40.2133 3.16831 40.1361 3.17827 40.0535 3.17827C39.8088 3.17827 39.6133 3.1093 39.4667 2.97137C39.3205 2.83344 39.2472 2.61944 39.2472 2.32933L39.2472 2.32933ZM41.7214 3.11399L41.7214 0.853008L41.9902 0.853008L41.9902 1.09617L41.9987 1.09617C42.0472 1.00232 42.1147 0.931925 42.2016 0.884987C42.288 0.838072 42.3768 0.814614 42.468 0.814614C42.5048 0.814614 42.5397 0.818165 42.5727 0.825266C42.6053 0.832391 42.6285 0.838782 42.6429 0.844463L42.66 0.857269L42.6045 1.13883C42.5731 1.11608 42.5134 1.1047 42.4253 1.1047C42.3001 1.1047 42.1977 1.15019 42.1182 1.2412C42.0387 1.33222 41.9987 1.46588 41.9987 1.6422L41.9987 3.11399L41.7214 3.11399L41.7214 3.11399ZM43.2743 2.50415L43.2743 1.10918L42.9586 1.10918L42.9586 0.853234L43.2828 0.853234L43.2828 0.298659L43.5516 0.298659L43.5516 0.853234L44.1062 0.853234L44.1062 1.10918L43.5516 1.10918L43.5516 2.46576C43.5516 2.60229 43.5702 2.69899 43.6071 2.75587C43.6439 2.81275 43.7164 2.84117 43.8246 2.84117L43.9867 2.84117L43.9867 3.11421L43.8161 3.11421C43.455 3.11421 43.2743 2.91086 43.2743 2.50415L43.2743 2.50415ZM44.9807 1.62547L44.9807 2.42321C44.9807 2.55688 45.0396 2.67348 45.1575 2.77304C45.2758 2.87257 45.4217 2.92233 45.595 2.92233C45.8397 2.92233 46.0251 2.83986 46.1519 2.6749C46.2783 2.50996 46.3415 2.2796 46.3415 1.98382C46.3415 1.69089 46.2776 1.46124 46.1496 1.29486C46.0216 1.12848 45.8366 1.04531 45.595 1.04531C45.41 1.04531 45.2615 1.10574 45.1494 1.2266C45.0369 1.34748 44.9807 1.48044 44.9807 1.62547L44.9807 1.62547ZM44.7034 3.11418L44.7034 0L44.9807 0L44.9807 1.07076L44.9892 1.07076C45.1455 0.883051 45.3619 0.789197 45.6376 0.789197C45.925 0.789197 46.16 0.898697 46.3435 1.1177C46.5269 1.33667 46.6188 1.62533 46.6188 1.98368C46.6188 2.34771 46.53 2.63779 46.3524 2.85395C46.1744 3.07008 45.9363 3.17816 45.6376 3.17816C45.4926 3.17816 45.3604 3.15113 45.2409 3.09712C45.1214 3.04308 45.0261 2.97623 44.9551 2.8966L44.9465 2.8966L44.9465 3.11418L44.7034 3.11418L44.7034 3.11418ZM48.5556 3.1143L48.5556 2.85406L48.5471 2.85406C48.5017 2.93937 48.4156 3.01474 48.2888 3.08016C48.1624 3.14557 48.0096 3.17828 47.8304 3.17828C47.5888 3.17828 47.4046 3.11856 47.2781 2.99909C47.1513 2.87965 47.0881 2.7275 47.0881 2.54266C47.0881 2.35779 47.1451 2.21132 47.2588 2.10324C47.3724 1.99518 47.5675 1.90559 47.8432 1.83448C47.9312 1.81173 47.991 1.79609 48.0224 1.78757C48.0538 1.77902 48.1042 1.76411 48.1736 1.74278C48.2434 1.72143 48.2919 1.70224 48.3187 1.68517C48.3458 1.66813 48.378 1.64536 48.4148 1.61693C48.4517 1.58848 48.4773 1.55792 48.4916 1.5252C48.506 1.49249 48.513 1.45625 48.513 1.41641C48.513 1.30836 48.4719 1.21948 48.3893 1.14979C48.3066 1.08013 48.1802 1.04529 48.0096 1.04529C47.6881 1.04529 47.4961 1.20454 47.4337 1.52307L47.1692 1.46335C47.1975 1.26142 47.2844 1.09861 47.4294 0.974889C47.5744 0.851187 47.7637 0.789313 47.9968 0.789313C48.5401 0.789313 48.8116 1.04671 48.8116 1.56147L48.8116 3.1143L48.5556 3.1143L48.5556 3.1143ZM47.9157 2.06041C47.7024 2.12013 47.5574 2.18414 47.4806 2.25238C47.4038 2.32064 47.3654 2.41166 47.3654 2.52542C47.3654 2.78989 47.5275 2.92213 47.8517 2.92213C48.0677 2.92213 48.2357 2.87167 48.3551 2.77069C48.4745 2.66974 48.5343 2.54532 48.5343 2.39743L48.5343 1.77459L48.5257 1.77459C48.4889 1.86276 48.2853 1.95804 47.9157 2.06041L47.9157 2.06041ZM49.3661 2.33788L49.6434 2.29523C49.6663 2.50852 49.7307 2.66778 49.8377 2.77302C49.9444 2.87823 50.0983 2.93085 50.3004 2.93085C50.4939 2.93085 50.6374 2.89459 50.7313 2.82206C50.8251 2.74954 50.872 2.65355 50.872 2.53411C50.872 2.40896 50.8286 2.31298 50.7417 2.24616C50.6552 2.17931 50.4753 2.10894 50.2023 2.03499C49.918 1.95821 49.7202 1.87217 49.6093 1.77689C49.4984 1.68162 49.4429 1.55153 49.4429 1.38657C49.4429 1.22445 49.5112 1.08439 49.6477 0.966368C49.7842 0.848347 49.9704 0.789313 50.2065 0.789313C50.4482 0.789313 50.6401 0.848347 50.7824 0.966368C50.9248 1.08439 51.0171 1.24009 51.0597 1.43348L50.8038 1.50175C50.7185 1.18889 50.5195 1.03248 50.2065 1.03248C50.0444 1.03248 49.9207 1.06803 49.8354 1.13914C49.7501 1.21022 49.7074 1.29271 49.7074 1.38657C49.7074 1.48894 49.7458 1.56502 49.8226 1.6148C49.8994 1.66455 50.0716 1.72785 50.3388 1.80463C50.6432 1.89278 50.853 1.98806 50.9682 2.09045C51.083 2.19283 51.1408 2.3393 51.1408 2.52985C51.1408 2.70901 51.0718 2.86188 50.9341 2.98844C50.796 3.11501 50.5847 3.17828 50.3004 3.17828C50.0076 3.17828 49.7834 3.10078 49.6283 2.94579C49.4736 2.79077 49.3859 2.58815 49.3661 2.33788L49.3661 2.33788ZM51.7722 3.11429L51.7722 0.853311L52.16 0.853311L52.16 3.11429L51.7722 3.11429L51.7722 3.11429ZM51.7381 0.51631L51.7381 0.128493L52.1259 0.128493L52.1259 0.51631L51.7381 0.51631L51.7381 0.51631Z" transform="translate(46.695484 281.54428)" id="Designed-by-Cagri-Yu" fill="#161A20" fill-opacity="0.5019608" fill-rule="evenodd" stroke="none" />
                <path d="M4.45991 8.91983C1.99678 8.91983 0 6.92308 0 4.45992C0 1.99678 1.99678 0 4.45991 0L4.45991 2.04279C3.12497 2.04279 2.04279 3.12497 2.04279 4.45992C2.04279 5.79486 3.12497 6.87704 4.45991 6.87704C5.79486 6.87704 6.87703 5.79486 6.87703 4.45992L8.91982 4.45992C8.91982 6.92308 6.92306 8.91983 4.45991 8.91983L4.45991 8.91983Z" transform="translate(68.64388 292.80252)" id="Combined-Shape" fill="#181B22" fill-opacity="0.5019608" fill-rule="evenodd" stroke="none" />
              </g>
              <g id="Frame">
                <g id="Mask-group">
                  <path d="M72.716 6.65734e-06L72.716 0C73.7216 6.65734e-06 73.7216 6.65734e-06 73.7216 6.65734e-06C85.2487 0.00645097 96.7762 -0.00249724 108.303 0.0193396C112.839 0.027932 117.388 0.0662931 121.919 0.310505C125.258 0.490489 128.634 0.784699 131.887 1.59826C133.916 2.10572 135.913 2.84382 137.671 3.99364C144.014 8.14202 144.751 16.6434 145.121 23.5132C145.179 24.5737 145.224 25.6348 145.257 26.6963C145.302 28.082 145.334 29.468 145.354 30.8543C145.386 32.9455 145.393 35.0371 145.412 37.1285L145.432 242.193C145.432 244.081 145.432 244.081 145.432 244.081C145.425 255.314 145.434 266.547 145.412 277.78C145.404 282.316 145.366 286.865 145.121 291.395C144.941 294.735 144.647 298.11 143.834 301.364C143.326 303.393 142.588 305.39 141.438 307.147C137.29 313.491 128.788 314.228 121.919 314.598C120.858 314.655 119.797 314.701 118.736 314.734C117.35 314.778 115.964 314.81 114.577 314.831C112.486 314.862 110.395 314.87 108.303 314.889L72.716 314.909C70.5124 314.909 70.5124 314.909 70.5124 314.909C59.3843 314.902 48.2562 314.911 37.1285 314.889C32.5928 314.88 28.0441 314.842 23.5132 314.598C20.1739 314.418 16.7983 314.124 13.5451 313.31C11.5159 312.803 9.5192 312.065 7.76102 310.915C1.41765 306.767 0.680765 298.265 0.310498 291.395C0.25334 290.335 0.208064 289.274 0.174357 288.212C0.13036 286.827 0.098002 285.441 0.0774027 284.054C0.0463292 281.963 0.0386954 279.871 0.0193388 277.78L0 72.716C5.91764e-06 71.5327 5.91764e-06 71.5327 5.91764e-06 71.5327C0.00645023 60.0645 -0.00247949 48.5968 0.0193388 37.1285C0.0279668 32.5928 0.0662894 28.0441 0.310498 23.5132C0.490483 20.1739 0.784691 16.7983 1.59826 13.5451C2.10571 11.5159 2.84381 9.5192 3.99361 7.76103C8.14202 1.41767 16.6434 0.680776 23.5132 0.310505C24.5737 0.253347 25.6348 0.208063 26.6963 0.174358C28.082 0.130359 29.468 0.098002 30.8543 0.0774035C32.9455 0.0463277 35.0371 0.038694 37.1285 0.0193396L72.716 6.65734e-06L72.716 6.65734e-06Z" id="path_5" fill="none" fill-rule="evenodd" stroke="none" />
                  <g clip-path="url(#mask_1)">
                    <g id="Group">
                      <path d="M72.716 6.65734e-06L72.716 0C73.7216 6.65734e-06 73.7216 6.65734e-06 73.7216 6.65734e-06C85.2487 0.00645097 96.7762 -0.00249724 108.303 0.0193396C112.839 0.027932 117.388 0.0662931 121.919 0.310505C125.258 0.490489 128.634 0.784699 131.887 1.59826C133.916 2.10572 135.913 2.84382 137.671 3.99364C144.014 8.14202 144.751 16.6434 145.121 23.5132C145.179 24.5737 145.224 25.6348 145.257 26.6963C145.302 28.082 145.334 29.468 145.354 30.8543C145.386 32.9455 145.393 35.0371 145.412 37.1285L145.432 242.193C145.432 244.081 145.432 244.081 145.432 244.081C145.425 255.314 145.434 266.547 145.412 277.78C145.404 282.316 145.366 286.865 145.121 291.395C144.941 294.735 144.647 298.11 143.834 301.364C143.326 303.393 142.588 305.39 141.438 307.147C137.29 313.491 128.788 314.228 121.919 314.598C120.858 314.655 119.797 314.701 118.736 314.734C117.35 314.778 115.964 314.81 114.577 314.831C112.486 314.862 110.395 314.87 108.303 314.889L72.716 314.909C70.5124 314.909 70.5124 314.909 70.5124 314.909C59.3843 314.902 48.2562 314.911 37.1285 314.889C32.5928 314.88 28.0441 314.842 23.5132 314.598C20.1739 314.418 16.7983 314.124 13.5451 313.31C11.5159 312.803 9.5192 312.065 7.76102 310.915C1.41765 306.767 0.680765 298.265 0.310498 291.395C0.25334 290.335 0.208064 289.274 0.174357 288.212C0.13036 286.827 0.098002 285.441 0.0774027 284.054C0.0463292 281.963 0.0386954 279.871 0.0193388 277.78L0 72.716C5.91764e-06 71.5327 5.91764e-06 71.5327 5.91764e-06 71.5327C0.00645023 60.0645 -0.00247949 48.5968 0.0193388 37.1285C0.0279668 32.5928 0.0662894 28.0441 0.310498 23.5132C0.490483 20.1739 0.784691 16.7983 1.59826 13.5451C2.10571 11.5159 2.84381 9.5192 3.99361 7.76103C8.14202 1.41767 16.6434 0.680776 23.5132 0.310505C24.5737 0.253347 25.6348 0.208063 26.6963 0.174358C28.082 0.130359 29.468 0.098002 30.8543 0.0774035C32.9455 0.0463277 35.0371 0.038694 37.1285 0.0193396L72.716 6.65734e-06L72.716 6.65734e-06Z" id="path_5" fill="none" fill-rule="evenodd" stroke="url(#gradient_5)" stroke-width="6" />
                    </g>
                  </g>
                </g>
              </g>
            </g>
          </g>
        </g>
      </g>
    </g>
  </g>
</svg>