<?xml version="1.0" encoding="iso-8859-1"?>
<!-- Generator: Adobe Illustrator 19.0.0, SVG Export Plug-In . SVG Version: 6.00 Build 0)  -->
<svg version="1.1" id="Capa_1" xmlns="http://www.w3.org/2000/svg" xmlns:xlink="http://www.w3.org/1999/xlink" x="0px" y="0px"
	 viewBox="0 0 512 512" style="enable-background:new 0 0 512 512;" xml:space="preserve">
<path style="fill:#CFD8DC;" d="M181.333,10.676h149.333c5.891,0,10.667,4.776,10.667,10.667V64.01
	c0,5.891-4.776,10.667-10.667,10.667H181.333c-5.891,0-10.667-4.776-10.667-10.667V21.343
	C170.667,15.452,175.442,10.676,181.333,10.676z"/>
<g>
	<path style="fill:#ECEFF1;" d="M185.408,11.487c-3.985-1.654-8.574-0.745-11.627,2.304l-42.667,42.667
		c-1.999,2.004-3.12,4.721-3.115,7.552v42.667c0,5.891,4.776,10.667,10.667,10.667h42.667c5.891,0,10.667-4.776,10.667-10.667
		V21.343C191.999,17.026,189.397,13.136,185.408,11.487z"/>
	<path style="fill:#ECEFF1;" d="M380.885,56.458l-42.667-42.667c-4.16-4.171-10.914-4.179-15.085-0.019
		c-2.011,2.006-3.139,4.731-3.134,7.571v85.333c0,5.891,4.776,10.667,10.667,10.667h42.667c5.891,0,10.667-4.776,10.667-10.667
		V64.01C384.005,61.179,382.885,58.462,380.885,56.458z"/>
	<path style="fill:#ECEFF1;" d="M501.333,96.01H10.667C4.776,96.01,0,100.785,0,106.676v362.667c0,17.673,14.327,32,32,32h448
		c17.673,0,32-14.327,32-32V106.676C512,100.785,507.224,96.01,501.333,96.01z"/>
</g>
<path style="fill:#2196F3;" d="M284.8,309.556L159.787,432.223c-6.632-5.083-10.501-12.978-10.453-21.333V208.436
	c-0.047-8.355,3.821-16.251,10.453-21.333L284.8,309.556z"/>
<path style="fill:#FFC107;" d="M384,309.556c0.001,9.709-5.212,18.67-13.653,23.467l-39.253,21.76L284.8,309.556l46.293-45.227
	l39.253,21.973C378.734,291.049,383.943,299.919,384,309.556z"/>
<path style="fill:#F44336;" d="M331.093,354.783l-142.507,79.573c-3.947,2.081-8.338,3.179-12.8,3.2
	c-4.666,0.089-9.258-1.171-13.227-3.627c-0.953-0.521-1.879-1.091-2.773-1.707L284.8,309.556L331.093,354.783z"/>
<path style="fill:#4CAF50;" d="M331.093,264.33L284.8,309.556L159.787,187.103c0.895-0.616,1.82-1.186,2.773-1.707
	c7.964-4.826,17.909-4.989,26.027-0.427L331.093,264.33z"/>

</svg>
