<?xml version="1.0" encoding="utf-8"?>
<svg width="340px" height="690px" viewbox="0 0 340 690" version="1.1" xmlns:xlink="http://www.w3.org/1999/xlink" xmlns="http://www.w3.org/2000/svg">
  <g id="Group-6" transform="matrix(-0.7313538 0.68199855 0.68199855 0.7313538 248.61072 1.4133301)">
    <g id="Group_450" transform="matrix(0.9999998 -7.541692E-08 7.541692E-08 0.9999998 268.63794 0.00024414062)">
      <g id="Group" transform="translate(0.00012207031 -0.00024414062)">
        <path d="M0 33.0293L0 19.8176C0 14.3451 1.93481 9.67407 5.80444 5.80444C9.67406 1.93481 14.3451 0 19.8176 0L49.544 0C55.0165 0 59.6875 1.93481 63.5571 5.80444C67.4268 9.67407 69.3616 14.3451 69.3616 19.8176L69.3616 46.2411C69.3616 51.7135 67.4268 56.3846 63.5571 60.2542C59.6875 64.1238 55.0165 66.0587 49.544 66.0587L19.8176 66.0587C14.3451 66.0587 9.67406 64.1238 5.80444 60.2542C1.93481 56.3846 0 51.7135 0 46.2411L0 33.0293Z" id="Rectangle_1588-2" fill="#E7E7F9" fill-rule="evenodd" stroke="none" />
      </g>
      <g id="Icon_ionic-ios-rocket" transform="translate(19.916016 19.735107)">
        <path d="M28.123 0.383719C28.1003 0.270688 28.0146 0.180766 27.9028 0.152515C24.2069 -0.751387 15.6665 2.46457 11.0402 7.09638C10.2147 7.91488 9.46206 8.8038 8.79095 9.75305C7.41177 9.58205 6.01176 9.75724 4.71732 10.2628C1.28665 11.7711 0.287004 15.7115 0.00846699 17.4037C-0.023049 17.5908 0.0345399 17.7818 0.164031 17.9204C0.293522 18.059 0.480266 18.1293 0.669026 18.1106L6.17391 17.5061C6.1811 17.9211 6.20939 18.3356 6.25865 18.7479C6.28721 19.0336 6.41455 19.3003 6.6187 19.5022L8.75238 21.6359C8.95391 21.8398 9.22021 21.9671 9.50547 21.9959C9.91605 22.0417 10.3287 22.0667 10.7419 22.0708L10.1374 27.5757C10.1187 27.7644 10.189 27.9511 10.3276 28.0807C10.4661 28.2102 10.6572 28.2677 10.8443 28.2363C12.5365 27.9643 16.4835 26.9657 17.9852 23.5351C18.4885 22.2462 18.6659 20.853 18.5016 19.4791C19.453 18.8081 20.3441 18.0555 21.1649 17.2298C25.812 12.6134 29.0126 4.26357 28.123 0.383719L28.123 0.383719ZM17.0338 11.2475C16.2035 10.4176 15.955 9.16923 16.4041 8.0846C16.8532 6.99996 17.9116 6.29272 19.0855 6.29272C20.2594 6.29272 21.3177 6.99996 21.7669 8.0846C22.216 9.16923 21.9675 10.4176 21.1372 11.2475C20.5934 11.7923 19.8552 12.0984 19.0855 12.0984C18.3158 12.0984 17.5776 11.7923 17.0338 11.2475L17.0338 11.2475Z" id="Path_330" fill="#6237FC" fill-rule="evenodd" stroke="none" />
        <path d="M6.26678 3.29874L6.26678 3.29874C5.87965 3.60515 5.41269 3.79393 4.9214 3.84262C4.33819 3.94049 3.74375 3.75034 3.32558 3.33222C2.90747 2.9141 2.71737 2.31961 2.81521 1.73645C2.8605 1.24715 3.04718 0.781601 3.35246 0.396563L3.35911 0.389952C3.42994 0.321523 3.44855 0.215178 3.40507 0.12677C3.3616 0.0383661 3.26611 -0.0118857 3.1686 0.00241074C2.47619 0.0870135 1.83203 0.400956 1.33879 0.894204C0.115581 2.11739 0 6.65562 0 6.65562C0 6.65562 4.54482 6.54552 5.76804 5.31683C6.26134 4.8248 6.57475 4.18102 6.65761 3.48921C6.66661 3.39292 6.615 3.30113 6.52812 3.25876C6.44116 3.21639 6.33707 3.23232 6.26678 3.29874L6.26678 3.29874Z" transform="translate(2.3360596 19.295654)" id="Path_331" fill="#6237FC" fill-rule="evenodd" stroke="none" />
      </g>
    </g>
    <path d="M271.941 2.51994e-05C271.941 2.51994e-05 138.613 -0.576268 140.235 167.899C141.857 336.374 219.402 362.653 0 586.991" transform="matrix(0.9999998 -7.541692E-08 7.541692E-08 0.9999998 -0.00012207031 36.88379)" id="Path_355" fill="none" fill-rule="evenodd" stroke="#D5D5FF" stroke-width="2" stroke-dasharray="7 7" />
  </g>
</svg>