 <svg xmlns="http://www.w3.org/2000/svg" viewBox="0 0 1440 320">
                    <path
                        fill="#0A0C0F"
                        fill-opacity="1"
                        d="M0,160L34.3,176C68.6,192,137,224,206,208C274.3,192,343,128,411,101.3C480,75,549,85,617,96C685.7,107,754,117,823,144C891.4,171,960,213,1029,197.3C1097.1,181,1166,107,1234,69.3C1302.9,32,1371,32,1406,32L1440,32L1440,0L1405.7,0C1371.4,0,1303,0,1234,0C1165.7,0,1097,0,1029,0C960,0,891,0,823,0C754.3,0,686,0,617,0C548.6,0,480,0,411,0C342.9,0,274,0,206,0C137.1,0,69,0,34,0L0,0Z"
                    ></path>
                </svg>